<svg width="303" height="175" viewBox="0 0 303 175" fill="none" xmlns="http://www.w3.org/2000/svg">
<rect x="30" y="45.2412" width="177" height="41" fill="#082FFF"/>
<path d="M22.2252 118.757C18.319 118.757 15.002 118.016 12.2744 116.534C9.58043 115.019 7.52628 113.015 6.11194 110.523C4.73128 107.998 4.04095 105.219 4.04095 102.189C4.04095 99.6631 4.42821 97.3563 5.20273 95.2685C5.97724 93.1807 7.22321 91.3454 8.94061 89.7627C10.6917 88.1463 13.0321 86.7994 15.9618 85.7218C17.9822 84.9809 20.39 84.3243 23.185 83.7518C25.98 83.1793 29.1454 82.6405 32.6812 82.1354C36.2171 81.5966 40.1065 81.0073 44.3495 80.3675L39.3993 83.0951C39.3993 79.8624 38.6248 77.4883 37.0758 75.973C35.5267 74.4576 32.9338 73.6999 29.2969 73.6999C27.2764 73.6999 25.1718 74.1882 22.9829 75.1648C20.7941 76.1413 19.2619 77.8756 18.3863 80.3675L5.96041 76.4276C7.34107 71.9152 9.93401 68.2446 13.7392 65.416C17.5445 62.5873 22.7304 61.173 29.2969 61.173C34.1124 61.173 38.3891 61.9138 42.1269 63.3955C45.8648 64.8772 48.6935 67.4365 50.613 71.0733C51.6905 73.0938 52.3304 75.1143 52.5324 77.1347C52.7345 79.1552 52.8355 81.4114 52.8355 83.9033V117.241H40.8136V106.028L42.531 108.351C39.8707 112.022 36.9916 114.682 33.8935 116.332C30.8291 117.948 26.9397 118.757 22.2252 118.757ZM25.1549 107.947C27.6805 107.947 29.802 107.509 31.5194 106.634C33.2705 105.724 34.6512 104.697 35.6614 103.552C36.7053 102.408 37.4125 101.448 37.7829 100.673C38.4901 99.1916 38.8942 97.4742 38.9952 95.5211C39.1299 93.5343 39.1973 91.8842 39.1973 90.5709L43.2382 91.5812C39.1636 92.2546 35.8635 92.8271 33.3379 93.2986C30.8123 93.7363 28.775 94.1404 27.2259 94.5108C25.6769 94.8813 24.3131 95.2854 23.1345 95.7231C21.7875 96.2619 20.6931 96.8512 19.8512 97.491C19.043 98.0972 18.4369 98.7707 18.0328 99.5115C17.6623 100.252 17.4771 101.077 17.4771 101.987C17.4771 103.233 17.7802 104.31 18.3863 105.219C19.0262 106.095 19.9185 106.768 21.0635 107.24C22.2084 107.711 23.5722 107.947 25.1549 107.947Z" fill="white"/>
<path d="M161.416 118.757C155.927 118.757 151.112 117.527 146.97 115.069C142.828 112.611 139.595 109.227 137.272 104.916C134.982 100.572 133.837 95.5884 133.837 89.9648C133.837 84.2738 135.015 79.2731 137.373 74.9627C139.73 70.6187 142.98 67.2344 147.121 64.8098C151.263 62.3853 156.028 61.173 161.416 61.173C166.905 61.173 171.721 62.4021 175.863 64.8603C180.038 67.3186 183.288 70.7197 185.612 75.0638C187.935 79.3741 189.097 84.3411 189.097 89.9648C189.097 95.6221 187.918 100.623 185.561 104.967C183.238 109.277 179.988 112.661 175.812 115.12C171.67 117.544 166.872 118.757 161.416 118.757ZM161.416 105.927C165.828 105.927 169.111 104.445 171.266 101.481C173.455 98.4844 174.549 94.6455 174.549 89.9648C174.549 85.1156 173.438 81.243 171.216 78.347C169.027 75.451 165.76 74.003 161.416 74.003C158.419 74.003 155.961 74.6765 154.042 76.0235C152.122 77.3705 150.691 79.2394 149.748 81.6303C148.839 84.0212 148.384 86.7994 148.384 89.9648C148.384 94.8476 149.479 98.737 151.668 101.633C153.89 104.495 157.14 105.927 161.416 105.927ZM220.511 118.858C216.234 118.858 212.749 118.134 210.055 116.686C207.361 115.238 205.256 113.402 203.741 111.18C202.259 108.957 201.198 106.651 200.558 104.26C199.919 101.835 199.531 99.6294 199.397 97.6426C199.262 95.6558 199.195 94.2078 199.195 93.2986V62.6883H213.136V88.4494C213.136 89.6954 213.203 91.2949 213.338 93.248C213.473 95.1675 213.894 97.1038 214.601 99.0569C215.308 101.01 216.453 102.643 218.035 103.957C219.652 105.27 221.925 105.927 224.855 105.927C226.033 105.927 227.296 105.741 228.643 105.371C229.99 105 231.253 104.293 232.431 103.249C233.61 102.172 234.57 100.606 235.311 98.5518C236.085 96.464 236.472 93.7363 236.472 90.3689L244.352 94.1067C244.352 98.4171 243.477 102.458 241.726 106.23C239.975 110.001 237.331 113.049 233.795 115.372C230.293 117.696 225.865 118.858 220.511 118.858ZM238.19 117.241V99.1579H236.472V62.6883H250.313V117.241H238.19ZM297.162 117.241C293.39 117.948 289.686 118.251 286.049 118.15C282.446 118.083 279.213 117.46 276.351 116.281C273.522 115.069 271.367 113.133 269.885 110.473C268.538 107.981 267.831 105.455 267.764 102.896C267.696 100.303 267.663 97.3732 267.663 94.1067V47.5347H281.402V93.2986C281.402 95.4201 281.419 97.3395 281.452 99.0569C281.52 100.741 281.873 102.088 282.513 103.098C283.725 105.017 285.662 106.061 288.322 106.23C290.982 106.398 293.929 106.263 297.162 105.826V117.241ZM258.368 73.2958V62.6883H297.162V73.2958H258.368Z" fill="white"/>
<path d="M61.7171 136.241V44.4805H98.1028C104.305 44.4805 109.382 45.7337 113.333 48.2401C117.326 50.7041 120.278 53.8689 122.19 57.7348C124.144 61.6006 125.121 65.5939 125.121 69.7147C125.121 74.77 123.91 79.0607 121.489 82.5867C119.11 86.1127 115.86 88.4916 111.739 89.7236V86.5375C117.517 87.8544 121.893 90.5945 124.866 94.7577C127.883 98.9209 129.391 103.658 129.391 108.968C129.391 114.406 128.35 119.164 126.268 123.242C124.187 127.32 121.085 130.506 116.965 132.8C112.886 135.094 107.831 136.241 101.799 136.241H61.7171ZM77.2654 121.776H99.887C102.563 121.776 104.964 121.245 107.088 120.183C109.212 119.079 110.869 117.549 112.058 115.595C113.29 113.598 113.906 111.241 113.906 108.522C113.906 106.058 113.375 103.849 112.313 101.895C111.251 99.9405 109.7 98.3899 107.661 97.2429C105.622 96.0534 103.179 95.4587 100.333 95.4587H77.2654V121.776ZM77.2654 81.121H97.9116C100.121 81.121 102.096 80.6962 103.838 79.8466C105.58 78.997 106.96 77.7437 107.98 76.0869C108.999 74.4302 109.509 72.391 109.509 69.9696C109.509 66.7834 108.49 64.1283 106.45 62.0042C104.411 59.8801 101.565 58.8181 97.9116 58.8181H77.2654V81.121Z" fill="white"/>
</svg>
