<svg width="378" height="197" viewBox="0 0 378 197" fill="none" xmlns="http://www.w3.org/2000/svg">
<rect x="96" y="91.5093" width="254" height="58.9813" fill="#082FFF"/>
<path d="M26.0642 145.777C21.4832 145.777 17.5933 144.908 14.3945 143.171C11.2352 141.394 8.82627 139.044 7.16764 136.122C5.54851 133.16 4.73894 129.902 4.73894 126.347C4.73894 123.386 5.19309 120.68 6.10138 118.232C7.00968 115.784 8.47085 113.631 10.4849 111.775C12.5384 109.88 15.2831 108.3 18.7188 107.036C21.0883 106.167 23.9119 105.397 27.1897 104.726C30.4674 104.055 34.1796 103.423 38.3262 102.83C42.4727 102.199 47.0339 101.508 52.0098 100.757L46.2046 103.956C46.2046 100.165 45.2963 97.3807 43.4797 95.6036C41.6632 93.8265 38.6223 92.938 34.3573 92.938C31.9878 92.938 29.5196 93.5106 26.9527 94.6558C24.3858 95.8011 22.5889 97.8349 21.5622 100.757L6.98993 96.1367C8.60907 90.8449 11.6499 86.5404 16.1124 83.2231C20.5749 79.9059 26.6565 78.2473 34.3573 78.2473C40.0045 78.2473 45.0199 79.1161 49.4034 80.8537C53.7869 82.5913 57.1042 85.5926 59.3552 89.8576C60.6189 92.2271 61.3692 94.5966 61.6062 96.9661C61.8431 99.3355 61.9616 101.981 61.9616 104.904V144H47.8633V130.849L49.8773 133.574C46.7575 137.879 43.381 140.999 39.7478 142.934C36.1541 144.829 31.5929 145.777 26.0642 145.777ZM29.4999 133.1C32.4617 133.1 34.9497 132.587 36.9637 131.56C39.0172 130.494 40.6364 129.29 41.8211 127.947C43.0453 126.604 43.8747 125.479 44.3091 124.57C45.1384 122.833 45.6123 120.819 45.7307 118.528C45.8887 116.198 45.9677 114.263 45.9677 112.723L50.7066 113.908C45.9282 114.698 42.0581 115.369 39.0962 115.922C36.1344 116.435 33.7452 116.909 31.9286 117.343C30.112 117.778 28.5126 118.252 27.1304 118.765C25.5508 119.397 24.2673 120.088 23.28 120.838C22.3322 121.549 21.6214 122.339 21.1475 123.208C20.7131 124.077 20.4959 125.044 20.4959 126.111C20.4959 127.572 20.8513 128.835 21.5622 129.902C22.3125 130.928 23.359 131.718 24.7017 132.271C26.0444 132.824 27.6438 133.1 29.4999 133.1Z" fill="white"/>
<path d="M70.0786 144V71.1912H100.82C101.528 71.1912 102.472 71.225 103.652 71.2924C104.865 71.3261 105.944 71.4272 106.887 71.5957C111.236 72.2699 114.792 73.7025 117.556 75.8935C120.354 78.0845 122.41 80.8485 123.725 84.1856C125.039 87.4889 125.696 91.1799 125.696 95.2586C125.696 101.36 124.18 106.584 121.146 110.933C118.112 115.247 113.359 117.91 106.887 118.921L100.82 119.326H83.8314V144H70.0786ZM111.135 144L96.7752 114.371L110.932 111.641L126.708 144H111.135ZM83.8314 106.483H100.213C100.921 106.483 101.697 106.45 102.539 106.382C103.382 106.315 104.157 106.18 104.865 105.978C106.719 105.472 108.152 104.629 109.163 103.45C110.174 102.236 110.865 100.905 111.236 99.4552C111.64 97.9721 111.843 96.5732 111.843 95.2586C111.843 93.944 111.64 92.562 111.236 91.1125C110.865 89.6294 110.174 88.2979 109.163 87.1182C108.152 85.9047 106.719 85.0451 104.865 84.5395C104.157 84.3373 103.382 84.2024 102.539 84.135C101.697 84.0676 100.921 84.0339 100.213 84.0339H83.8314V106.483Z" fill="white"/>
<path d="M142.078 126V55.7453H115.185V40.6991H185.084V55.7453H158.191V126H142.078Z" fill="white"/>
<path d="M192.522 143.861L192.522 158.078L176.41 158.078L176.41 143.861L192.522 143.861ZM192.522 71L192.522 134.976L176.41 134.976L176.41 71L192.522 71Z" fill="white"/>
<path d="M234.291 127.777C226.235 127.777 219.719 125.961 214.743 122.327C209.807 118.655 206.805 113.481 205.739 106.807L222.207 104.319C222.878 107.321 224.359 109.67 226.649 111.369C228.979 113.067 231.922 113.916 235.476 113.916C238.398 113.916 240.649 113.363 242.229 112.257C243.808 111.112 244.598 109.532 244.598 107.518C244.598 106.254 244.282 105.247 243.65 104.497C243.019 103.707 241.597 102.937 239.385 102.187C237.213 101.437 233.817 100.449 229.197 99.225C223.984 97.8823 219.818 96.3816 216.698 94.723C213.578 93.0644 211.327 91.0898 209.945 88.7993C208.563 86.4694 207.871 83.6655 207.871 80.3877C207.871 76.2807 208.918 72.7265 211.011 69.7251C213.104 66.6843 216.046 64.3543 219.837 62.7352C223.668 61.0766 228.17 60.2473 233.343 60.2473C238.359 60.2473 242.801 61.0173 246.672 62.5575C250.542 64.0976 253.661 66.2894 256.031 69.1328C258.44 71.9761 259.921 75.3329 260.474 79.203L244.006 82.1648C243.729 79.7954 242.703 77.9195 240.926 76.5373C239.148 75.1552 236.739 74.3456 233.699 74.1086C230.737 73.9112 228.348 74.3061 226.531 75.2934C224.754 76.2807 223.865 77.7023 223.865 79.5584C223.865 80.6642 224.241 81.5922 224.991 82.3425C225.781 83.0929 227.38 83.863 229.789 84.6528C232.237 85.4426 235.95 86.4694 240.926 87.7331C245.783 88.9968 249.673 90.4777 252.595 92.1758C255.557 93.8345 257.709 95.8485 259.052 98.218C260.395 100.548 261.066 103.372 261.066 106.689C261.066 113.244 258.697 118.398 253.958 122.15C249.219 125.901 242.663 127.777 234.291 127.777Z" fill="white"/>
<path d="M312.679 126C308.256 126.829 303.911 127.185 299.646 127.066C295.421 126.987 291.63 126.257 288.273 124.875C284.956 123.453 282.428 121.182 280.691 118.062C279.111 115.14 278.282 112.178 278.203 109.177C278.124 106.136 278.084 102.7 278.084 98.8696V44.2533H294.197V97.9218C294.197 100.41 294.216 102.661 294.256 104.675C294.335 106.649 294.75 108.229 295.5 109.414C296.922 111.665 299.192 112.889 302.312 113.086C305.432 113.284 308.887 113.126 312.679 112.613V126ZM267.185 74.4641V62.0244H312.679V74.4641H267.185Z" fill="white"/>
<path d="M346.291 127.777C338.235 127.777 331.719 125.961 326.743 122.327C321.807 118.655 318.805 113.481 317.739 106.807L334.207 104.319C334.878 107.321 336.359 109.67 338.649 111.369C340.979 113.067 343.922 113.916 347.476 113.916C350.398 113.916 352.649 113.363 354.229 112.257C355.808 111.112 356.598 109.532 356.598 107.518C356.598 106.254 356.282 105.247 355.65 104.497C355.019 103.707 353.597 102.937 351.385 102.187C349.213 101.437 345.817 100.449 341.197 99.225C335.984 97.8823 331.818 96.3816 328.698 94.723C325.578 93.0644 323.327 91.0898 321.945 88.7993C320.563 86.4694 319.871 83.6655 319.871 80.3877C319.871 76.2807 320.918 72.7265 323.011 69.7251C325.104 66.6843 328.046 64.3543 331.837 62.7352C335.668 61.0766 340.17 60.2473 345.343 60.2473C350.359 60.2473 354.801 61.0173 358.672 62.5575C362.542 64.0976 365.661 66.2894 368.031 69.1328C370.44 71.9761 371.921 75.3329 372.474 79.203L356.006 82.1648C355.729 79.7954 354.703 77.9195 352.926 76.5373C351.148 75.1552 348.739 74.3456 345.699 74.1086C342.737 73.9112 340.348 74.3061 338.531 75.2934C336.754 76.2807 335.865 77.7023 335.865 79.5584C335.865 80.6642 336.241 81.5922 336.991 82.3425C337.781 83.0929 339.38 83.863 341.789 84.6528C344.237 85.4426 347.95 86.4694 352.926 87.7331C357.783 88.9968 361.673 90.4777 364.595 92.1758C367.557 93.8345 369.709 95.8485 371.052 98.218C372.395 100.548 373.066 103.372 373.066 106.689C373.066 113.244 370.697 118.398 365.958 122.15C361.219 125.901 354.663 127.777 346.291 127.777Z" fill="white"/>
</svg>
