<svg width="777" height="207" viewBox="0 0 777 207" fill="none" xmlns="http://www.w3.org/2000/svg">
<rect x="102" y="143" width="399" height="41" fill="black"/>
<path d="M36.4898 172.777C29.8553 172.777 24.1686 171.296 19.4296 168.334C14.6907 165.373 11.0575 161.344 8.53009 156.25C6.00265 151.156 4.73894 145.41 4.73894 139.012C4.73894 132.536 6.04214 126.75 8.64856 121.656C11.2945 116.561 15.0066 112.553 19.7851 109.631C24.5635 106.708 30.2107 105.247 36.7268 105.247C44.2696 105.247 50.5882 107.163 55.6825 110.993C60.8164 114.784 64.0941 119.977 65.5158 126.572L49.4034 130.838C48.4556 127.52 46.797 124.934 44.4275 123.078C42.0976 121.221 39.4517 120.293 36.4898 120.293C33.0936 120.293 30.3095 121.123 28.1374 122.781C25.9654 124.4 24.366 126.632 23.3393 129.475C22.3125 132.279 21.7991 135.458 21.7991 139.012C21.7991 144.58 23.0233 149.102 25.4718 152.577C27.9597 156.013 31.6324 157.731 36.4898 157.731C40.123 157.731 42.8874 156.902 44.783 155.243C46.6785 153.584 48.1002 151.215 49.048 148.135L65.5158 151.57C63.6992 158.363 60.2635 163.595 55.2086 167.268C50.1537 170.941 43.9141 172.777 36.4898 172.777Z" fill="white"/>
<path d="M101.082 172.777C94.6451 172.777 88.9979 171.336 84.1405 168.453C79.2831 165.57 75.4919 161.601 72.767 156.546C70.0816 151.452 68.7389 145.607 68.7389 139.012C68.7389 132.338 70.1211 126.474 72.8855 121.419C75.6499 116.325 79.4608 112.356 84.3182 109.512C89.1756 106.669 94.7636 105.247 101.082 105.247C107.519 105.247 113.166 106.689 118.024 109.572C122.921 112.454 126.732 116.443 129.457 121.537C132.181 126.592 133.544 132.417 133.544 139.012C133.544 145.647 132.162 151.511 129.397 156.605C126.672 161.66 122.862 165.629 117.965 168.512C113.107 171.355 107.48 172.777 101.082 172.777ZM101.082 157.731C106.256 157.731 110.106 155.993 112.633 152.518C115.2 149.003 116.484 144.501 116.484 139.012C116.484 133.325 115.181 128.784 112.574 125.388C110.007 121.991 106.177 120.293 101.082 120.293C97.5675 120.293 94.6846 121.083 92.4336 122.663C90.1826 124.242 88.5043 126.434 87.3985 129.238C86.3322 132.042 85.7991 135.3 85.7991 139.012C85.7991 144.738 87.0826 149.3 89.6495 152.696C92.2559 156.053 96.0668 157.731 101.082 157.731Z" fill="white"/>
<path d="M139.478 171V85.6991H155.59V155.954H192.317V171H139.478Z" fill="white"/>
<path d="M199.478 171V85.6991H215.59V155.954H252.317V171H199.478Z" fill="white"/>
<path d="M247.064 127.777C242.483 127.777 238.593 126.908 235.395 125.171C232.235 123.394 229.826 121.044 228.168 118.122C226.549 115.16 225.739 111.902 225.739 108.347C225.739 105.386 226.193 102.68 227.101 100.232C228.01 97.7836 229.471 95.6313 231.485 93.7752C233.538 91.8797 236.283 90.3 239.719 89.0363C242.088 88.1675 244.912 87.3974 248.19 86.7261C251.467 86.0547 255.18 85.4229 259.326 84.8305C263.473 84.1986 268.034 83.5075 273.01 82.7572L267.205 85.956C267.205 82.1648 266.296 79.3807 264.48 77.6036C262.663 75.8265 259.622 74.938 255.357 74.938C252.988 74.938 250.52 75.5106 247.953 76.6558C245.386 77.8011 243.589 79.8349 242.562 82.7572L227.99 78.1367C229.609 72.8449 232.65 68.5404 237.112 65.2231C241.575 61.9059 247.657 60.2473 255.357 60.2473C261.005 60.2473 266.02 61.1161 270.403 62.8537C274.787 64.5913 278.104 67.5926 280.355 71.8576C281.619 74.2271 282.369 76.5966 282.606 78.9661C282.843 81.3355 282.962 83.9814 282.962 86.9038V126H268.863V112.849L270.877 115.574C267.758 119.879 264.381 122.999 260.748 124.934C257.154 126.829 252.593 127.777 247.064 127.777ZM250.5 115.1C253.462 115.1 255.95 114.587 257.964 113.56C260.017 112.494 261.636 111.29 262.821 109.947C264.045 108.604 264.875 107.479 265.309 106.57C266.138 104.833 266.612 102.819 266.731 100.528C266.889 98.1982 266.968 96.2632 266.968 94.723L271.707 95.9078C266.928 96.6976 263.058 97.3689 260.096 97.9218C257.134 98.4352 254.745 98.9091 252.929 99.3435C251.112 99.7779 249.513 100.252 248.13 100.765C246.551 101.397 245.267 102.088 244.28 102.838C243.332 103.549 242.621 104.339 242.148 105.208C241.713 106.077 241.496 107.044 241.496 108.111C241.496 109.572 241.851 110.835 242.562 111.902C243.312 112.928 244.359 113.718 245.702 114.271C247.044 114.824 248.644 115.1 250.5 115.1Z" fill="white"/>
<path d="M325.689 172.777C319.331 172.777 314.019 171.296 309.754 168.334C305.489 165.373 302.27 161.344 300.098 156.25C297.966 151.156 296.9 145.41 296.9 139.012C296.9 132.615 297.966 126.869 300.098 121.774C302.231 116.68 305.37 112.652 309.517 109.69C313.664 106.728 318.778 105.247 324.859 105.247C330.98 105.247 336.312 106.708 340.853 109.631C345.395 112.553 348.909 116.561 351.397 121.656C353.925 126.711 355.188 132.496 355.188 139.012C355.188 145.41 353.945 151.156 351.457 156.25C349.008 161.344 345.572 165.373 341.149 168.334C336.726 171.296 331.573 172.777 325.689 172.777ZM294.175 171V85.6991H310.406V127.165H308.391V171H294.175ZM323.082 158.442C326.557 158.442 329.401 157.573 331.612 155.835C333.824 154.098 335.463 151.768 336.529 148.845C337.595 145.884 338.128 142.606 338.128 139.012C338.128 135.458 337.575 132.22 336.47 129.297C335.364 126.336 333.646 123.986 331.316 122.248C329.026 120.471 326.084 119.583 322.49 119.583C319.133 119.583 316.408 120.392 314.315 122.011C312.262 123.63 310.761 125.901 309.813 128.823C308.865 131.746 308.391 135.142 308.391 139.012C308.391 142.882 308.865 146.279 309.813 149.201C310.761 152.123 312.301 154.394 314.434 156.013C316.606 157.632 319.488 158.442 323.082 158.442Z" fill="white"/>
<path d="M394.082 172.777C387.645 172.777 381.998 171.336 377.14 168.453C372.283 165.57 368.492 161.601 365.767 156.546C363.082 151.452 361.739 145.607 361.739 139.012C361.739 132.338 363.121 126.474 365.886 121.419C368.65 116.325 372.461 112.356 377.318 109.512C382.176 106.669 387.764 105.247 394.082 105.247C400.519 105.247 406.166 106.689 411.024 109.572C415.921 112.454 419.732 116.443 422.457 121.537C425.181 126.592 426.544 132.417 426.544 139.012C426.544 145.647 425.162 151.511 422.397 156.605C419.672 161.66 415.862 165.629 410.965 168.512C406.107 171.355 400.48 172.777 394.082 172.777ZM394.082 157.731C399.256 157.731 403.106 155.993 405.633 152.518C408.2 149.003 409.484 144.501 409.484 139.012C409.484 133.325 408.181 128.784 405.574 125.388C403.007 121.991 399.177 120.293 394.082 120.293C390.567 120.293 387.685 121.083 385.434 122.663C383.183 124.242 381.504 126.434 380.399 129.238C379.332 132.042 378.799 135.3 378.799 139.012C378.799 144.738 380.083 149.3 382.649 152.696C385.256 156.053 389.067 157.731 394.082 157.731Z" fill="white"/>
<path d="M433.293 171V107.024H447.51V122.663L445.97 120.649C446.799 118.437 447.905 116.423 449.287 114.607C450.669 112.79 452.367 111.289 454.381 110.105C455.922 109.157 457.6 108.426 459.417 107.913C461.233 107.36 463.109 107.024 465.044 106.906C466.979 106.748 468.914 106.787 470.849 107.024V122.07C469.072 121.518 466.999 121.34 464.629 121.537C462.299 121.695 460.187 122.228 458.291 123.137C456.395 124.006 454.796 125.171 453.493 126.632C452.19 128.053 451.202 129.752 450.531 131.726C449.86 133.661 449.524 135.853 449.524 138.301V171H433.293Z" fill="white"/>
<path d="M495.064 172.777C490.483 172.777 486.593 171.908 483.395 170.171C480.235 168.394 477.826 166.044 476.168 163.122C474.549 160.16 473.739 156.902 473.739 153.347C473.739 150.386 474.193 147.68 475.101 145.232C476.01 142.784 477.471 140.631 479.485 138.775C481.538 136.88 484.283 135.3 487.719 134.036C490.088 133.167 492.912 132.397 496.19 131.726C499.467 131.055 503.18 130.423 507.326 129.83C511.473 129.199 516.034 128.508 521.01 127.757L515.205 130.956C515.205 127.165 514.296 124.381 512.48 122.604C510.663 120.827 507.622 119.938 503.357 119.938C500.988 119.938 498.52 120.511 495.953 121.656C493.386 122.801 491.589 124.835 490.562 127.757L475.99 123.137C477.609 117.845 480.65 113.54 485.112 110.223C489.575 106.906 495.657 105.247 503.357 105.247C509.005 105.247 514.02 106.116 518.403 107.854C522.787 109.591 526.104 112.593 528.355 116.858C529.619 119.227 530.369 121.597 530.606 123.966C530.843 126.336 530.962 128.981 530.962 131.904V171H516.863V157.849L518.877 160.574C515.758 164.879 512.381 167.999 508.748 169.934C505.154 171.829 500.593 172.777 495.064 172.777ZM498.5 160.1C501.462 160.1 503.95 159.587 505.964 158.56C508.017 157.494 509.636 156.29 510.821 154.947C512.045 153.604 512.875 152.479 513.309 151.57C514.138 149.833 514.612 147.819 514.731 145.528C514.889 143.198 514.968 141.263 514.968 139.723L519.707 140.908C514.928 141.698 511.058 142.369 508.096 142.922C505.134 143.435 502.745 143.909 500.929 144.343C499.112 144.778 497.513 145.252 496.13 145.765C494.551 146.397 493.267 147.088 492.28 147.838C491.332 148.549 490.621 149.339 490.148 150.208C489.713 151.077 489.496 152.044 489.496 153.111C489.496 154.572 489.851 155.835 490.562 156.902C491.312 157.928 492.359 158.718 493.702 159.271C495.044 159.824 496.644 160.1 498.5 160.1Z" fill="white"/>
<path d="M580.679 171C576.256 171.829 571.911 172.185 567.646 172.066C563.421 171.987 559.63 171.257 556.273 169.875C552.956 168.453 550.428 166.182 548.691 163.062C547.111 160.14 546.282 157.178 546.203 154.177C546.124 151.136 546.084 147.7 546.084 143.87V89.2533H562.197V142.922C562.197 145.41 562.216 147.661 562.256 149.675C562.335 151.649 562.75 153.229 563.5 154.414C564.922 156.665 567.192 157.889 570.312 158.086C573.432 158.284 576.887 158.126 580.679 157.613V171ZM535.185 119.464V107.024H580.679V119.464H535.185Z" fill="white"/>
<path d="M627.901 172.777C619.371 172.777 612.006 170.921 605.806 167.209C599.646 163.497 594.887 158.304 591.53 151.63C588.213 144.956 586.554 137.196 586.554 128.35C586.554 119.504 588.213 111.744 591.53 105.07C594.887 98.3955 599.646 93.2025 605.806 89.4903C612.006 85.7781 619.371 83.922 627.901 83.922C636.432 83.922 643.777 85.7781 649.937 89.4903C656.138 93.2025 660.896 98.3955 664.214 105.07C667.57 111.744 669.249 119.504 669.249 128.35C669.249 137.196 667.57 144.956 664.214 151.63C660.896 158.304 656.138 163.497 649.937 167.209C643.777 170.921 636.432 172.777 627.901 172.777ZM627.901 157.613C633.312 157.691 637.814 156.526 641.407 154.118C645.001 151.709 647.686 148.293 649.464 143.87C651.28 139.447 652.188 134.273 652.188 128.35C652.188 122.426 651.28 117.292 649.464 112.948C647.686 108.604 645.001 105.228 641.407 102.819C637.814 100.41 633.312 99.1656 627.901 99.0866C622.491 99.0076 617.989 100.173 614.395 102.582C610.802 104.991 608.097 108.407 606.28 112.83C604.503 117.253 603.614 122.426 603.614 128.35C603.614 134.273 604.503 139.407 606.28 143.751C608.097 148.095 610.802 151.472 614.395 153.881C617.989 156.29 622.491 157.534 627.901 157.613Z" fill="white"/>
<path d="M675.293 171V107.024H689.51V122.663L687.97 120.649C688.799 118.437 689.905 116.423 691.287 114.607C692.669 112.79 694.367 111.289 696.381 110.105C697.922 109.157 699.6 108.426 701.417 107.913C703.233 107.36 705.109 107.024 707.044 106.906C708.979 106.748 710.914 106.787 712.849 107.024V122.07C711.072 121.518 708.999 121.34 706.629 121.537C704.299 121.695 702.187 122.228 700.291 123.137C698.395 124.006 696.796 125.171 695.493 126.632C694.19 128.053 693.202 129.752 692.531 131.726C691.86 133.661 691.524 135.853 691.524 138.301V171H675.293Z" fill="white"/>
<path d="M745.291 172.777C737.235 172.777 730.719 170.961 725.743 167.327C720.807 163.655 717.805 158.481 716.739 151.807L733.207 149.319C733.878 152.321 735.359 154.67 737.649 156.369C739.979 158.067 742.922 158.916 746.476 158.916C749.398 158.916 751.649 158.363 753.229 157.257C754.808 156.112 755.598 154.532 755.598 152.518C755.598 151.254 755.282 150.247 754.65 149.497C754.019 148.707 752.597 147.937 750.385 147.187C748.213 146.437 744.817 145.449 740.197 144.225C734.984 142.882 730.818 141.382 727.698 139.723C724.578 138.064 722.327 136.09 720.945 133.799C719.563 131.469 718.871 128.665 718.871 125.388C718.871 121.281 719.918 117.726 722.011 114.725C724.104 111.684 727.046 109.354 730.837 107.735C734.668 106.077 739.17 105.247 744.343 105.247C749.359 105.247 753.801 106.017 757.672 107.557C761.542 109.098 764.661 111.289 767.031 114.133C769.44 116.976 770.921 120.333 771.474 124.203L755.006 127.165C754.729 124.795 753.703 122.92 751.926 121.537C750.148 120.155 747.739 119.346 744.699 119.109C741.737 118.911 739.348 119.306 737.531 120.293C735.754 121.281 734.865 122.702 734.865 124.558C734.865 125.664 735.241 126.592 735.991 127.343C736.781 128.093 738.38 128.863 740.789 129.653C743.237 130.443 746.95 131.469 751.926 132.733C756.783 133.997 760.673 135.478 763.595 137.176C766.557 138.834 768.709 140.849 770.052 143.218C771.395 145.548 772.066 148.372 772.066 151.689C772.066 158.244 769.697 163.398 764.958 167.15C760.219 170.901 753.663 172.777 745.291 172.777Z" fill="white"/>
</svg>
