<svg width="379" height="761" viewBox="0 0 379 761" fill="none" xmlns="http://www.w3.org/2000/svg">
<rect x="79.1846" y="345.386" width="190.402" height="87.1935" fill="black"/>
<path d="M284.625 409.297C303.237 409.297 325.505 398.828 351.429 377.889L359.904 380.382C327.333 407.635 299.248 421.262 275.651 421.262C272.992 421.262 270.998 421.096 269.669 420.763C260.695 431.731 250.89 440.705 240.255 447.684C229.62 454.332 220.314 457.655 212.337 457.655C199.707 457.655 193.393 450.676 193.393 436.717C193.393 422.425 205.191 403.481 228.789 379.884C224.8 370.245 222.806 360.108 222.806 349.473C222.806 338.837 226.628 330.196 234.273 323.549C241.917 316.902 250.724 313.578 260.695 313.578C270.998 313.578 279.639 316.902 286.619 323.549C293.598 330.196 297.088 339.668 297.088 351.966C297.088 370.91 290.939 389.854 278.642 408.799C279.972 409.131 281.966 409.297 284.625 409.297ZM268.672 404.312C278.975 387.029 284.126 372.405 284.126 360.441C284.126 348.143 281.135 339.17 275.153 333.52C269.17 327.537 263.354 324.546 257.704 324.546C246.071 324.546 240.255 330.528 240.255 342.493C240.255 354.458 242.914 366.423 248.232 378.388C253.549 390.02 260.363 398.662 268.672 404.312ZM213.833 433.725C213.833 440.373 218.153 443.696 226.795 443.696C235.436 443.696 246.404 434.889 259.698 417.274C250.724 412.621 242.748 404.478 235.768 392.845C221.144 408.799 213.833 422.425 213.833 433.725Z" fill="white"/>
<path d="M26.5941 416.774L2.46153 350.287H19.2066L34.9666 396.336L50.7266 350.287H67.4716L43.3391 416.774H26.5941Z" fill="white"/>
<path d="M153.962 461.004C143.966 461.004 134.938 459.255 126.878 455.756C118.881 452.195 112.29 447.134 107.105 440.575C101.982 433.952 98.7329 426.08 97.3584 416.959L123.973 413.023C125.847 420.77 129.721 426.736 135.594 430.922C141.466 435.108 148.151 437.201 155.649 437.201C159.834 437.201 163.895 436.545 167.831 435.233C171.767 433.921 174.985 431.984 177.484 429.423C180.045 426.861 181.326 423.706 181.326 419.957C181.326 418.583 181.108 417.271 180.67 416.021C180.295 414.709 179.639 413.491 178.702 412.367C177.765 411.242 176.422 410.18 174.672 409.18C172.986 408.181 170.83 407.275 168.206 406.463L133.157 396.154C130.533 395.404 127.472 394.342 123.973 392.968C120.537 391.593 117.195 389.625 113.946 387.064C110.697 384.502 107.979 381.129 105.793 376.943C103.669 372.694 102.606 367.353 102.606 360.918C102.606 351.859 104.887 344.33 109.448 338.333C114.008 332.335 120.1 327.868 127.722 324.931C135.344 321.995 143.778 320.558 153.025 320.621C162.333 320.746 170.643 322.339 177.952 325.4C185.262 328.461 191.385 332.928 196.32 338.801C201.256 344.611 204.817 351.734 207.004 360.168L179.452 364.854C178.452 360.48 176.609 356.794 173.923 353.795C171.236 350.797 168.019 348.516 164.27 346.954C160.584 345.392 156.711 344.549 152.65 344.424C148.651 344.299 144.871 344.861 141.31 346.111C137.812 347.298 134.938 349.047 132.689 351.359C130.502 353.67 129.409 356.419 129.409 359.606C129.409 362.542 130.315 364.947 132.126 366.822C133.938 368.633 136.219 370.102 138.967 371.226C141.716 372.351 144.528 373.288 147.402 374.038L170.83 380.41C174.329 381.347 178.202 382.597 182.451 384.159C186.699 385.658 190.76 387.782 194.634 390.531C198.57 393.218 201.787 396.779 204.286 401.215C206.848 405.65 208.128 411.273 208.128 418.083C208.128 425.33 206.598 431.672 203.536 437.107C200.538 442.48 196.477 446.947 191.354 450.508C186.231 454.007 180.42 456.631 173.923 458.38C167.488 460.13 160.834 461.004 153.962 461.004Z" fill="white"/>
<path d="M307.426 421.348V343.295H322.387L356.318 395.33V343.295H371.279V421.348H356.318L322.387 369.313V421.348H307.426Z" fill="white"/>
<path d="M71.7269 300.962V278.225H97.4948V300.962H71.7269ZM71.7269 417.486V315.172H97.4948V417.486H71.7269Z" fill="white"/>
<path d="M199.074 313.75V300.741H213.817V313.75H199.074ZM199.074 380.421V321.881H213.817V380.421H199.074Z" fill="white"/>
<path d="M36.884 497.287C36.0868 497.436 35.3038 497.5 34.5351 497.479C33.7735 497.465 33.0902 497.333 32.4852 497.084C31.8873 496.828 31.4317 496.418 31.1185 495.856C30.8338 495.329 30.6843 494.795 30.6701 494.254C30.6559 493.706 30.6488 493.087 30.6488 492.397V482.553H33.5528V492.226C33.5528 492.674 33.5564 493.08 33.5635 493.443C33.5777 493.799 33.6525 494.084 33.7877 494.297C34.044 494.703 34.4532 494.924 35.0156 494.959C35.5779 494.995 36.2007 494.966 36.884 494.874V497.287ZM28.6842 487.998V485.756H36.884V487.998H28.6842ZM43.996 497.607C42.8358 497.607 41.818 497.347 40.9425 496.828C40.067 496.308 39.3837 495.593 38.8925 494.681C38.4085 493.763 38.1665 492.71 38.1665 491.521C38.1665 490.318 38.4157 489.261 38.9139 488.35C39.4121 487.432 40.099 486.717 40.9745 486.204C41.85 485.692 42.8572 485.435 43.996 485.435C45.1562 485.435 46.1741 485.695 47.0496 486.215C47.9322 486.734 48.6191 487.453 49.1102 488.372C49.6013 489.283 49.8469 490.332 49.8469 491.521C49.8469 492.717 49.5978 493.774 49.0995 494.692C48.6084 495.603 47.9215 496.319 47.0389 496.838C46.1634 497.351 45.1491 497.607 43.996 497.607ZM43.996 494.895C44.9285 494.895 45.6225 494.582 46.078 493.955C46.5407 493.322 46.772 492.511 46.772 491.521C46.772 490.496 46.5371 489.678 46.0673 489.066C45.6047 488.453 44.9142 488.147 43.996 488.147C43.3625 488.147 42.8429 488.29 42.4372 488.574C42.0315 488.859 41.729 489.254 41.5297 489.76C41.3375 490.265 41.2414 490.852 41.2414 491.521C41.2414 492.553 41.4728 493.375 41.9354 493.988C42.4052 494.593 43.0921 494.895 43.996 494.895ZM60.9752 497.607C59.5232 497.607 58.3488 497.28 57.4519 496.625C56.5622 495.963 56.0212 495.03 55.829 493.827L58.7972 493.379C58.9182 493.92 59.1851 494.343 59.5979 494.649C60.0179 494.956 60.5482 495.109 61.1888 495.109C61.7155 495.109 62.1212 495.009 62.4059 494.81C62.6906 494.603 62.833 494.318 62.833 493.955C62.833 493.728 62.776 493.546 62.6622 493.411C62.5483 493.269 62.292 493.13 61.8934 492.995C61.502 492.859 60.8898 492.681 60.057 492.461C59.1175 492.219 58.3665 491.948 57.8042 491.649C57.2419 491.35 56.8362 490.994 56.5871 490.582C56.338 490.162 56.2134 489.656 56.2134 489.066C56.2134 488.325 56.402 487.685 56.7793 487.144C57.1565 486.596 57.6868 486.176 58.3701 485.884C59.0605 485.585 59.872 485.435 60.8044 485.435C61.7084 485.435 62.5091 485.574 63.2067 485.852C63.9042 486.129 64.4665 486.524 64.8936 487.037C65.3278 487.549 65.5947 488.154 65.6944 488.852L62.7262 489.386C62.6764 488.959 62.4913 488.621 62.171 488.372C61.8507 488.122 61.4165 487.976 60.8685 487.934C60.3346 487.898 59.904 487.969 59.5766 488.147C59.2563 488.325 59.0961 488.582 59.0961 488.916C59.0961 489.115 59.1637 489.283 59.299 489.418C59.4413 489.553 59.7296 489.692 60.1638 489.834C60.6051 489.977 61.2742 490.162 62.171 490.389C63.0465 490.617 63.7476 490.884 64.2744 491.19C64.8082 491.489 65.1961 491.852 65.4381 492.279C65.6801 492.699 65.8011 493.208 65.8011 493.806C65.8011 494.988 65.3741 495.916 64.5199 496.593C63.6658 497.269 62.4842 497.607 60.9752 497.607ZM72.4394 497.628C71.5354 497.628 70.7987 497.475 70.2293 497.169C69.6599 496.863 69.215 496.475 68.8947 496.005C68.5815 495.536 68.3573 495.048 68.2221 494.543C68.0868 494.03 68.005 493.564 67.9765 493.144C67.948 492.724 67.9338 492.418 67.9338 492.226V485.756H70.8806V491.201C70.8806 491.464 70.8948 491.802 70.9233 492.215C70.9518 492.621 71.0407 493.03 71.1902 493.443C71.3397 493.856 71.5817 494.201 71.9162 494.479C72.2579 494.756 72.7383 494.895 73.3576 494.895C73.6067 494.895 73.8736 494.856 74.1584 494.778C74.4431 494.699 74.71 494.55 74.9591 494.329C75.2082 494.101 75.4111 493.77 75.5677 493.336C75.7314 492.895 75.8132 492.318 75.8132 491.607L77.4788 492.397C77.4788 493.308 77.2938 494.162 76.9236 494.959C76.5535 495.756 75.9948 496.4 75.2474 496.892C74.5071 497.383 73.5711 497.628 72.4394 497.628ZM76.1763 497.287V493.464H75.8132V485.756H78.7387V497.287H76.1763ZM87.3813 497.607C86.2354 497.607 85.278 497.34 84.5093 496.806C83.7406 496.272 83.1605 495.546 82.769 494.628C82.3846 493.71 82.1924 492.674 82.1924 491.521C82.1924 490.368 82.3846 489.332 82.769 488.414C83.1533 487.496 83.7192 486.77 84.4666 486.236C85.214 485.702 86.1357 485.435 87.2319 485.435C88.3351 485.435 89.296 485.699 90.1146 486.226C90.9331 486.752 91.5666 487.475 92.015 488.393C92.4706 489.304 92.6984 490.347 92.6984 491.521C92.6984 492.674 92.4741 493.71 92.0257 494.628C91.5844 495.546 90.9652 496.272 90.168 496.806C89.3708 497.34 88.4419 497.607 87.3813 497.607ZM81.7013 502.411V485.756H84.2637V493.657H84.6267V502.411H81.7013ZM86.9116 495.023C87.5379 495.023 88.0504 494.867 88.449 494.553C88.8476 494.24 89.143 493.82 89.3352 493.294C89.5274 492.76 89.6235 492.169 89.6235 491.521C89.6235 490.881 89.5238 490.297 89.3245 489.77C89.1252 489.236 88.8156 488.813 88.3956 488.5C87.9828 488.179 87.4525 488.019 86.8048 488.019C86.1998 488.019 85.7086 488.165 85.3314 488.457C84.9613 488.749 84.6908 489.158 84.52 489.685C84.3491 490.211 84.2637 490.824 84.2637 491.521C84.2637 492.219 84.3491 492.831 84.52 493.358C84.6908 493.884 84.9684 494.294 85.3528 494.585C85.7442 494.877 86.2638 495.023 86.9116 495.023ZM100.706 497.607C99.5605 497.607 98.6031 497.34 97.8344 496.806C97.0657 496.272 96.4855 495.546 96.0941 494.628C95.7097 493.71 95.5175 492.674 95.5175 491.521C95.5175 490.368 95.7097 489.332 96.0941 488.414C96.4784 487.496 97.0443 486.77 97.7917 486.236C98.539 485.702 99.4608 485.435 100.557 485.435C101.66 485.435 102.621 485.699 103.44 486.226C104.258 486.752 104.892 487.475 105.34 488.393C105.796 489.304 106.023 490.347 106.023 491.521C106.023 492.674 105.799 493.71 105.351 494.628C104.91 495.546 104.29 496.272 103.493 496.806C102.696 497.34 101.767 497.607 100.706 497.607ZM95.0264 502.411V485.756H97.5888V493.657H97.9518V502.411H95.0264ZM100.237 495.023C100.863 495.023 101.376 494.867 101.774 494.553C102.173 494.24 102.468 493.82 102.66 493.294C102.852 492.76 102.949 492.169 102.949 491.521C102.949 490.881 102.849 490.297 102.65 489.77C102.45 489.236 102.141 488.813 101.721 488.5C101.308 488.179 100.778 488.019 100.13 488.019C99.5249 488.019 99.0337 488.165 98.6565 488.457C98.2864 488.749 98.0159 489.158 97.8451 489.685C97.6742 490.211 97.5888 490.824 97.5888 491.521C97.5888 492.219 97.6742 492.831 97.8451 493.358C98.0159 493.884 98.2935 494.294 98.6778 494.585C99.0693 494.877 99.5889 495.023 100.237 495.023ZM113.562 497.607C112.402 497.607 111.384 497.347 110.508 496.828C109.633 496.308 108.949 495.593 108.458 494.681C107.974 493.763 107.732 492.71 107.732 491.521C107.732 490.318 107.981 489.261 108.48 488.35C108.978 487.432 109.665 486.717 110.54 486.204C111.416 485.692 112.423 485.435 113.562 485.435C114.722 485.435 115.74 485.695 116.615 486.215C117.498 486.734 118.185 487.453 118.676 488.372C119.167 489.283 119.413 490.332 119.413 491.521C119.413 492.717 119.163 493.774 118.665 494.692C118.174 495.603 117.487 496.319 116.605 496.838C115.729 497.351 114.715 497.607 113.562 497.607ZM113.562 494.895C114.494 494.895 115.188 494.582 115.644 493.955C116.106 493.322 116.338 492.511 116.338 491.521C116.338 490.496 116.103 489.678 115.633 489.066C115.17 488.453 114.48 488.147 113.562 488.147C112.928 488.147 112.409 488.29 112.003 488.574C111.597 488.859 111.295 489.254 111.095 489.76C110.903 490.265 110.807 490.852 110.807 491.521C110.807 492.553 111.038 493.375 111.501 493.988C111.971 494.593 112.658 494.895 113.562 494.895ZM121.76 497.287V485.756H124.323V488.574L124.045 488.211C124.195 487.813 124.394 487.45 124.643 487.122C124.892 486.795 125.198 486.524 125.561 486.311C125.839 486.14 126.142 486.008 126.469 485.916C126.796 485.816 127.134 485.756 127.483 485.734C127.832 485.706 128.181 485.713 128.53 485.756V488.468C128.209 488.368 127.836 488.336 127.408 488.372C126.989 488.4 126.608 488.496 126.266 488.66C125.924 488.816 125.636 489.026 125.401 489.29C125.166 489.546 124.988 489.852 124.867 490.208C124.746 490.557 124.686 490.952 124.686 491.393V497.287H121.76ZM137.479 497.287C136.682 497.436 135.899 497.5 135.13 497.479C134.368 497.465 133.685 497.333 133.08 497.084C132.482 496.828 132.027 496.418 131.714 495.856C131.429 495.329 131.279 494.795 131.265 494.254C131.251 493.706 131.244 493.087 131.244 492.397V482.553H134.148V492.226C134.148 492.674 134.151 493.08 134.159 493.443C134.173 493.799 134.247 494.084 134.383 494.297C134.639 494.703 135.048 494.924 135.611 494.959C136.173 494.995 136.796 494.966 137.479 494.874V497.287ZM129.279 487.998V485.756H137.479V487.998H129.279ZM144.537 484.154V481.592H147.441V484.154H144.537ZM144.537 497.287V485.756H147.441V497.287H144.537ZM158.5 497.287V491.841C158.5 491.578 158.486 491.244 158.457 490.838C158.429 490.425 158.34 490.012 158.19 489.599C158.041 489.187 157.795 488.841 157.454 488.564C157.119 488.286 156.642 488.147 156.023 488.147C155.774 488.147 155.507 488.186 155.222 488.265C154.938 488.343 154.671 488.496 154.421 488.724C154.172 488.945 153.966 489.272 153.802 489.706C153.646 490.14 153.567 490.717 153.567 491.436L151.902 490.646C151.902 489.735 152.087 488.88 152.457 488.083C152.827 487.286 153.382 486.642 154.123 486.151C154.87 485.66 155.809 485.414 156.941 485.414C157.845 485.414 158.582 485.567 159.151 485.873C159.721 486.179 160.162 486.567 160.475 487.037C160.796 487.507 161.023 487.998 161.159 488.51C161.294 489.016 161.376 489.478 161.404 489.898C161.433 490.318 161.447 490.624 161.447 490.817V497.287H158.5ZM150.621 497.287V485.756H153.204V489.578H153.567V497.287H150.621ZM168.685 497.607C167.625 497.607 166.696 497.34 165.898 496.806C165.101 496.272 164.478 495.546 164.03 494.628C163.589 493.71 163.368 492.674 163.368 491.521C163.368 490.347 163.592 489.304 164.041 488.393C164.496 487.475 165.133 486.752 165.952 486.226C166.77 485.699 167.731 485.435 168.835 485.435C169.931 485.435 170.853 485.702 171.6 486.236C172.347 486.77 172.913 487.496 173.297 488.414C173.682 489.332 173.874 490.368 173.874 491.521C173.874 492.674 173.678 493.71 173.287 494.628C172.902 495.546 172.326 496.272 171.557 496.806C170.788 497.34 169.831 497.607 168.685 497.607ZM169.155 495.023C169.803 495.023 170.319 494.877 170.703 494.585C171.095 494.294 171.376 493.884 171.546 493.358C171.717 492.831 171.803 492.219 171.803 491.521C171.803 490.824 171.717 490.211 171.546 489.685C171.376 489.158 171.102 488.749 170.724 488.457C170.354 488.165 169.867 488.019 169.262 488.019C168.614 488.019 168.08 488.179 167.66 488.5C167.247 488.813 166.941 489.236 166.742 489.77C166.543 490.297 166.443 490.881 166.443 491.521C166.443 492.169 166.539 492.76 166.731 493.294C166.923 493.82 167.219 494.24 167.617 494.553C168.016 494.867 168.529 495.023 169.155 495.023ZM171.803 497.287V489.386H171.44V481.912H174.365V497.287H171.803ZM182.714 497.607C181.533 497.607 180.49 497.354 179.586 496.849C178.689 496.336 177.985 495.635 177.472 494.746C176.967 493.849 176.714 492.824 176.714 491.671C176.714 490.411 176.963 489.315 177.461 488.382C177.96 487.45 178.647 486.727 179.522 486.215C180.398 485.695 181.405 485.435 182.544 485.435C183.754 485.435 184.782 485.72 185.629 486.29C186.476 486.859 187.103 487.66 187.508 488.692C187.914 489.724 188.056 490.938 187.935 492.333H185.063V491.265C185.063 490.09 184.875 489.247 184.497 488.735C184.127 488.215 183.519 487.955 182.672 487.955C181.682 487.955 180.953 488.258 180.483 488.863C180.02 489.461 179.789 490.347 179.789 491.521C179.789 492.596 180.02 493.429 180.483 494.02C180.953 494.603 181.64 494.895 182.544 494.895C183.113 494.895 183.601 494.77 184.006 494.521C184.412 494.272 184.722 493.913 184.935 493.443L187.839 494.276C187.405 495.329 186.718 496.148 185.779 496.731C184.846 497.315 183.825 497.607 182.714 497.607ZM178.892 492.333V490.176H186.537V492.333H178.892ZM195.692 497.607C194.546 497.607 193.589 497.34 192.82 496.806C192.051 496.272 191.471 495.546 191.08 494.628C190.695 493.71 190.503 492.674 190.503 491.521C190.503 490.368 190.695 489.332 191.08 488.414C191.464 487.496 192.03 486.77 192.777 486.236C193.525 485.702 194.446 485.435 195.542 485.435C196.646 485.435 197.607 485.699 198.425 486.226C199.244 486.752 199.877 487.475 200.326 488.393C200.781 489.304 201.009 490.347 201.009 491.521C201.009 492.674 200.785 493.71 200.336 494.628C199.895 495.546 199.276 496.272 198.479 496.806C197.681 497.34 196.753 497.607 195.692 497.607ZM190.012 502.411V485.756H192.574V493.657H192.937V502.411H190.012ZM195.222 495.023C195.849 495.023 196.361 494.867 196.76 494.553C197.158 494.24 197.454 493.82 197.646 493.294C197.838 492.76 197.934 492.169 197.934 491.521C197.934 490.881 197.834 490.297 197.635 489.77C197.436 489.236 197.126 488.813 196.706 488.5C196.293 488.179 195.763 488.019 195.115 488.019C194.51 488.019 194.019 488.165 193.642 488.457C193.272 488.749 193.001 489.158 192.831 489.685C192.66 490.211 192.574 490.824 192.574 491.521C192.574 492.219 192.66 492.831 192.831 493.358C193.001 493.884 193.279 494.294 193.663 494.585C194.055 494.877 194.574 495.023 195.222 495.023ZM208.718 497.607C207.537 497.607 206.494 497.354 205.59 496.849C204.693 496.336 203.988 495.635 203.476 494.746C202.97 493.849 202.718 492.824 202.718 491.671C202.718 490.411 202.967 489.315 203.465 488.382C203.963 487.45 204.65 486.727 205.526 486.215C206.401 485.695 207.408 485.435 208.547 485.435C209.757 485.435 210.786 485.72 211.633 486.29C212.48 486.859 213.106 487.66 213.512 488.692C213.918 489.724 214.06 490.938 213.939 492.333H211.067V491.265C211.067 490.09 210.878 489.247 210.501 488.735C210.131 488.215 209.522 487.955 208.675 487.955C207.686 487.955 206.956 488.258 206.487 488.863C206.024 489.461 205.793 490.347 205.793 491.521C205.793 492.596 206.024 493.429 206.487 494.02C206.956 494.603 207.643 494.895 208.547 494.895C209.117 494.895 209.604 494.77 210.01 494.521C210.416 494.272 210.725 493.913 210.939 493.443L213.843 494.276C213.409 495.329 212.722 496.148 211.782 496.731C210.85 497.315 209.828 497.607 208.718 497.607ZM204.896 492.333V490.176H212.54V492.333H204.896ZM223.895 497.287V491.841C223.895 491.578 223.881 491.244 223.852 490.838C223.824 490.425 223.735 490.012 223.585 489.599C223.436 489.187 223.19 488.841 222.849 488.564C222.514 488.286 222.037 488.147 221.418 488.147C221.169 488.147 220.902 488.186 220.617 488.265C220.333 488.343 220.066 488.496 219.817 488.724C219.567 488.945 219.361 489.272 219.197 489.706C219.041 490.14 218.962 490.717 218.962 491.436L217.297 490.646C217.297 489.735 217.482 488.88 217.852 488.083C218.222 487.286 218.777 486.642 219.518 486.151C220.265 485.66 221.205 485.414 222.336 485.414C223.24 485.414 223.977 485.567 224.546 485.873C225.116 486.179 225.557 486.567 225.87 487.037C226.191 487.507 226.418 487.998 226.554 488.51C226.689 489.016 226.771 489.478 226.799 489.898C226.828 490.318 226.842 490.624 226.842 490.817V497.287H223.895ZM216.016 497.287V485.756H218.599V489.578H218.962V497.287H216.016ZM234.08 497.607C233.02 497.607 232.091 497.34 231.294 496.806C230.496 496.272 229.874 495.546 229.425 494.628C228.984 493.71 228.763 492.674 228.763 491.521C228.763 490.347 228.987 489.304 229.436 488.393C229.891 487.475 230.528 486.752 231.347 486.226C232.166 485.699 233.126 485.435 234.23 485.435C235.326 485.435 236.248 485.702 236.995 486.236C237.742 486.77 238.308 487.496 238.693 488.414C239.077 489.332 239.269 490.368 239.269 491.521C239.269 492.674 239.073 493.71 238.682 494.628C238.298 495.546 237.721 496.272 236.952 496.806C236.184 497.34 235.226 497.607 234.08 497.607ZM234.55 495.023C235.198 495.023 235.714 494.877 236.098 494.585C236.49 494.294 236.771 493.884 236.942 493.358C237.112 492.831 237.198 492.219 237.198 491.521C237.198 490.824 237.112 490.211 236.942 489.685C236.771 489.158 236.497 488.749 236.119 488.457C235.749 488.165 235.262 488.019 234.657 488.019C234.009 488.019 233.475 488.179 233.055 488.5C232.642 488.813 232.336 489.236 232.137 489.77C231.938 490.297 231.838 490.881 231.838 491.521C231.838 492.169 231.934 492.76 232.126 493.294C232.319 493.82 232.614 494.24 233.013 494.553C233.411 494.867 233.924 495.023 234.55 495.023ZM237.198 497.287V489.386H236.835V481.912H239.76V497.287H237.198ZM248.109 497.607C246.928 497.607 245.885 497.354 244.981 496.849C244.084 496.336 243.38 495.635 242.867 494.746C242.362 493.849 242.109 492.824 242.109 491.671C242.109 490.411 242.358 489.315 242.857 488.382C243.355 487.45 244.042 486.727 244.917 486.215C245.793 485.695 246.8 485.435 247.939 485.435C249.149 485.435 250.177 485.72 251.024 486.29C251.871 486.859 252.498 487.66 252.903 488.692C253.309 489.724 253.451 490.938 253.33 492.333H250.458V491.265C250.458 490.09 250.27 489.247 249.892 488.735C249.522 488.215 248.914 487.955 248.067 487.955C247.077 487.955 246.348 488.258 245.878 488.863C245.415 489.461 245.184 490.347 245.184 491.521C245.184 492.596 245.415 493.429 245.878 494.02C246.348 494.603 247.035 494.895 247.939 494.895C248.508 494.895 248.996 494.77 249.401 494.521C249.807 494.272 250.117 493.913 250.33 493.443L253.234 494.276C252.8 495.329 252.113 496.148 251.174 496.731C250.241 497.315 249.22 497.607 248.109 497.607ZM244.287 492.333V490.176H251.932V492.333H244.287ZM263.286 497.287V491.841C263.286 491.578 263.272 491.244 263.244 490.838C263.215 490.425 263.126 490.012 262.977 489.599C262.827 489.187 262.582 488.841 262.24 488.564C261.906 488.286 261.429 488.147 260.809 488.147C260.56 488.147 260.293 488.186 260.009 488.265C259.724 488.343 259.457 488.496 259.208 488.724C258.959 488.945 258.752 489.272 258.589 489.706C258.432 490.14 258.354 490.717 258.354 491.436L256.688 490.646C256.688 489.735 256.873 488.88 257.243 488.083C257.614 487.286 258.169 486.642 258.909 486.151C259.656 485.66 260.596 485.414 261.728 485.414C262.632 485.414 263.368 485.567 263.938 485.873C264.507 486.179 264.948 486.567 265.262 487.037C265.582 487.507 265.81 487.998 265.945 488.51C266.08 489.016 266.162 489.478 266.191 489.898C266.219 490.318 266.233 490.624 266.233 490.817V497.287H263.286ZM255.407 497.287V485.756H257.991V489.578H258.354V497.287H255.407ZM275.922 497.287C275.125 497.436 274.342 497.5 273.573 497.479C272.812 497.465 272.128 497.333 271.523 497.084C270.926 496.828 270.47 496.418 270.157 495.856C269.872 495.329 269.723 494.795 269.708 494.254C269.694 493.706 269.687 493.087 269.687 492.397V482.553H272.591V492.226C272.591 492.674 272.595 493.08 272.602 493.443C272.616 493.799 272.691 494.084 272.826 494.297C273.082 494.703 273.491 494.924 274.054 494.959C274.616 494.995 275.239 494.966 275.922 494.874V497.287ZM267.722 487.998V485.756H275.922V487.998H267.722ZM285.97 497.607C285.144 497.607 284.443 497.45 283.866 497.137C283.297 496.817 282.863 496.393 282.564 495.867C282.272 495.333 282.126 494.746 282.126 494.105C282.126 493.571 282.208 493.084 282.372 492.642C282.535 492.201 282.799 491.813 283.162 491.478C283.532 491.137 284.027 490.852 284.646 490.624C285.073 490.468 285.582 490.329 286.173 490.208C286.763 490.087 287.432 489.973 288.18 489.866C288.927 489.752 289.749 489.628 290.646 489.493L289.6 490.069C289.6 489.386 289.436 488.884 289.109 488.564C288.781 488.243 288.233 488.083 287.464 488.083C287.037 488.083 286.593 488.186 286.13 488.393C285.667 488.599 285.343 488.966 285.158 489.493L282.532 488.66C282.824 487.706 283.372 486.93 284.176 486.332C284.98 485.734 286.076 485.435 287.464 485.435C288.482 485.435 289.386 485.592 290.176 485.905C290.966 486.218 291.564 486.759 291.97 487.528C292.198 487.955 292.333 488.382 292.376 488.809C292.418 489.236 292.44 489.713 292.44 490.24V497.287H289.899V494.916L290.262 495.408C289.699 496.183 289.091 496.746 288.436 497.094C287.788 497.436 286.966 497.607 285.97 497.607ZM286.589 495.322C287.123 495.322 287.571 495.23 287.934 495.045C288.304 494.852 288.596 494.635 288.81 494.393C289.03 494.151 289.18 493.948 289.258 493.785C289.408 493.471 289.493 493.108 289.514 492.696C289.543 492.276 289.557 491.927 289.557 491.649L290.411 491.863C289.55 492.005 288.852 492.126 288.319 492.226C287.785 492.318 287.354 492.404 287.027 492.482C286.699 492.56 286.411 492.646 286.162 492.738C285.877 492.852 285.646 492.977 285.468 493.112C285.297 493.24 285.169 493.382 285.084 493.539C285.005 493.696 284.966 493.87 284.966 494.062C284.966 494.326 285.03 494.553 285.158 494.746C285.294 494.931 285.482 495.073 285.724 495.173C285.966 495.272 286.254 495.322 286.589 495.322ZM295.216 497.287V485.756H297.778V488.574L297.501 488.211C297.65 487.813 297.85 487.45 298.099 487.122C298.348 486.795 298.654 486.524 299.017 486.311C299.294 486.14 299.597 486.008 299.924 485.916C300.252 485.816 300.59 485.756 300.939 485.734C301.287 485.706 301.636 485.713 301.985 485.756V488.468C301.665 488.368 301.291 488.336 300.864 488.372C300.444 488.4 300.063 488.496 299.722 488.66C299.38 488.816 299.092 489.026 298.857 489.29C298.622 489.546 298.444 489.852 298.323 490.208C298.202 490.557 298.141 490.952 298.141 491.393V497.287H295.216ZM310.934 497.287C310.137 497.436 309.354 497.5 308.586 497.479C307.824 497.465 307.141 497.333 306.536 497.084C305.938 496.828 305.482 496.418 305.169 495.856C304.884 495.329 304.735 494.795 304.721 494.254C304.706 493.706 304.699 493.087 304.699 492.397V482.553H307.603V492.226C307.603 492.674 307.607 493.08 307.614 493.443C307.628 493.799 307.703 494.084 307.838 494.297C308.094 494.703 308.504 494.924 309.066 494.959C309.628 494.995 310.251 494.966 310.934 494.874V497.287ZM302.735 487.998V485.756H310.934V487.998H302.735ZM313.718 484.154V481.592H316.622V484.154H313.718ZM313.718 497.287V485.756H316.622V497.287H313.718ZM324.328 497.607C322.876 497.607 321.702 497.28 320.805 496.625C319.915 495.963 319.374 495.03 319.182 493.827L322.15 493.379C322.271 493.92 322.538 494.343 322.951 494.649C323.371 494.956 323.901 495.109 324.542 495.109C325.068 495.109 325.474 495.009 325.759 494.81C326.044 494.603 326.186 494.318 326.186 493.955C326.186 493.728 326.129 493.546 326.015 493.411C325.901 493.269 325.645 493.13 325.246 492.995C324.855 492.859 324.243 492.681 323.41 492.461C322.47 492.219 321.719 491.948 321.157 491.649C320.595 491.35 320.189 490.994 319.94 490.582C319.691 490.162 319.566 489.656 319.566 489.066C319.566 488.325 319.755 487.685 320.132 487.144C320.509 486.596 321.04 486.176 321.723 485.884C322.413 485.585 323.225 485.435 324.157 485.435C325.061 485.435 325.862 485.574 326.56 485.852C327.257 486.129 327.819 486.524 328.246 487.037C328.681 487.549 328.948 488.154 329.047 488.852L326.079 489.386C326.029 488.959 325.844 488.621 325.524 488.372C325.204 488.122 324.769 487.976 324.221 487.934C323.688 487.898 323.257 487.969 322.929 488.147C322.609 488.325 322.449 488.582 322.449 488.916C322.449 489.115 322.517 489.283 322.652 489.418C322.794 489.553 323.083 489.692 323.517 489.834C323.958 489.977 324.627 490.162 325.524 490.389C326.399 490.617 327.101 490.884 327.627 491.19C328.161 491.489 328.549 491.852 328.791 492.279C329.033 492.699 329.154 493.208 329.154 493.806C329.154 494.988 328.727 495.916 327.873 496.593C327.019 497.269 325.837 497.607 324.328 497.607ZM338.419 497.287C337.622 497.436 336.839 497.5 336.07 497.479C335.308 497.465 334.625 497.333 334.02 497.084C333.422 496.828 332.967 496.418 332.653 495.856C332.369 495.329 332.219 494.795 332.205 494.254C332.191 493.706 332.184 493.087 332.184 492.397V482.553H335.088V492.226C335.088 492.674 335.091 493.08 335.098 493.443C335.113 493.799 335.187 494.084 335.323 494.297C335.579 494.703 335.988 494.924 336.55 494.959C337.113 494.995 337.735 494.966 338.419 494.874V497.287ZM330.219 487.998V485.756H338.419V487.998H330.219ZM345.494 497.607C344.042 497.607 342.867 497.28 341.971 496.625C341.081 495.963 340.54 495.03 340.348 493.827L343.316 493.379C343.437 493.92 343.704 494.343 344.117 494.649C344.537 494.956 345.067 495.109 345.707 495.109C346.234 495.109 346.64 495.009 346.925 494.81C347.209 494.603 347.352 494.318 347.352 493.955C347.352 493.728 347.295 493.546 347.181 493.411C347.067 493.269 346.811 493.13 346.412 492.995C346.021 492.859 345.409 492.681 344.576 492.461C343.636 492.219 342.885 491.948 342.323 491.649C341.761 491.35 341.355 490.994 341.106 490.582C340.857 490.162 340.732 489.656 340.732 489.066C340.732 488.325 340.921 487.685 341.298 487.144C341.675 486.596 342.206 486.176 342.889 485.884C343.579 485.585 344.391 485.435 345.323 485.435C346.227 485.435 347.028 485.574 347.725 485.852C348.423 486.129 348.985 486.524 349.412 487.037C349.847 487.549 350.113 488.154 350.213 488.852L347.245 489.386C347.195 488.959 347.01 488.621 346.69 488.372C346.369 488.122 345.935 487.976 345.387 487.934C344.853 487.898 344.423 487.969 344.095 488.147C343.775 488.325 343.615 488.582 343.615 488.916C343.615 489.115 343.682 489.283 343.818 489.418C343.96 489.553 344.248 489.692 344.683 489.834C345.124 489.977 345.793 490.162 346.69 490.389C347.565 490.617 348.266 490.884 348.793 491.19C349.327 491.489 349.715 491.852 349.957 492.279C350.199 492.699 350.32 493.208 350.32 493.806C350.32 494.988 349.893 495.916 349.039 496.593C348.184 497.269 347.003 497.607 345.494 497.607Z" fill="white"/>
<path d="M142.747 290.87L139.224 279.317L142.064 279.339L144.156 286.214L146.281 279.339H148.694L150.819 286.214L152.911 279.339H155.751L152.228 290.87H150.007L147.488 283.353L144.968 290.87H142.747ZM162.626 291.19C161.444 291.19 160.401 290.937 159.497 290.432C158.6 289.919 157.896 289.218 157.383 288.328C156.878 287.432 156.625 286.407 156.625 285.254C156.625 283.994 156.874 282.898 157.373 281.965C157.871 281.033 158.558 280.31 159.433 279.798C160.309 279.278 161.316 279.018 162.455 279.018C163.665 279.018 164.693 279.303 165.54 279.872C166.387 280.442 167.014 281.243 167.419 282.275C167.825 283.307 167.968 284.52 167.847 285.915H164.974V284.848C164.974 283.673 164.786 282.83 164.409 282.317C164.038 281.798 163.43 281.538 162.583 281.538C161.594 281.538 160.864 281.841 160.394 282.446C159.931 283.043 159.7 283.93 159.7 285.104C159.7 286.179 159.931 287.012 160.394 287.602C160.864 288.186 161.551 288.478 162.455 288.478C163.024 288.478 163.512 288.353 163.917 288.104C164.323 287.855 164.633 287.496 164.846 287.026L167.75 287.859C167.316 288.912 166.629 289.731 165.69 290.314C164.757 290.898 163.736 291.19 162.626 291.19ZM158.803 285.915V283.759H166.448V285.915H158.803ZM182.39 290.87V285.424C182.39 285.161 182.376 284.826 182.348 284.421C182.319 284.008 182.23 283.595 182.081 283.182C181.931 282.769 181.686 282.424 181.344 282.147C181.009 281.869 180.533 281.73 179.913 281.73C179.664 281.73 179.397 281.769 179.112 281.848C178.828 281.926 178.561 282.079 178.312 282.307C178.063 282.527 177.856 282.855 177.692 283.289C177.536 283.723 177.458 284.3 177.458 285.019L175.792 284.229C175.792 283.317 175.977 282.463 176.347 281.666C176.717 280.869 177.273 280.225 178.013 279.734C178.76 279.243 179.7 278.997 180.831 278.997C181.735 278.997 182.472 279.15 183.042 279.456C183.611 279.762 184.052 280.15 184.365 280.62C184.686 281.09 184.914 281.581 185.049 282.093C185.184 282.599 185.266 283.061 185.294 283.481C185.323 283.901 185.337 284.207 185.337 284.399V290.87H182.39ZM174.511 290.87V275.495H177.095V283.396H177.458V290.87H174.511ZM191.311 291.19C190.485 291.19 189.784 291.033 189.207 290.72C188.638 290.4 188.204 289.976 187.905 289.449C187.613 288.916 187.467 288.328 187.467 287.688C187.467 287.154 187.549 286.666 187.712 286.225C187.876 285.784 188.14 285.396 188.503 285.061C188.873 284.72 189.367 284.435 189.987 284.207C190.414 284.051 190.923 283.912 191.513 283.791C192.104 283.67 192.773 283.556 193.521 283.449C194.268 283.335 195.09 283.211 195.987 283.075L194.941 283.652C194.941 282.969 194.777 282.467 194.449 282.147C194.122 281.826 193.574 281.666 192.805 281.666C192.378 281.666 191.933 281.769 191.471 281.976C191.008 282.182 190.684 282.549 190.499 283.075L187.873 282.243C188.164 281.289 188.713 280.513 189.517 279.915C190.321 279.317 191.417 279.018 192.805 279.018C193.823 279.018 194.727 279.175 195.517 279.488C196.307 279.801 196.905 280.342 197.311 281.111C197.539 281.538 197.674 281.965 197.717 282.392C197.759 282.819 197.781 283.296 197.781 283.823V290.87H195.24V288.499L195.603 288.99C195.04 289.766 194.432 290.329 193.777 290.677C193.129 291.019 192.307 291.19 191.311 291.19ZM191.93 288.905C192.464 288.905 192.912 288.812 193.275 288.627C193.645 288.435 193.937 288.218 194.151 287.976C194.371 287.734 194.521 287.531 194.599 287.368C194.748 287.054 194.834 286.691 194.855 286.279C194.884 285.859 194.898 285.51 194.898 285.232L195.752 285.446C194.891 285.588 194.193 285.709 193.659 285.809C193.126 285.901 192.695 285.987 192.368 286.065C192.04 286.143 191.752 286.229 191.503 286.321C191.218 286.435 190.987 286.56 190.809 286.695C190.638 286.823 190.51 286.965 190.424 287.122C190.346 287.279 190.307 287.453 190.307 287.645C190.307 287.908 190.371 288.136 190.499 288.328C190.634 288.514 190.823 288.656 191.065 288.756C191.307 288.855 191.595 288.905 191.93 288.905ZM203.257 290.87L199.072 279.339H201.976L204.709 287.325L207.443 279.339H210.347L206.161 290.87H203.257ZM217.219 291.19C216.037 291.19 214.994 290.937 214.091 290.432C213.194 289.919 212.489 289.218 211.977 288.328C211.471 287.432 211.218 286.407 211.218 285.254C211.218 283.994 211.468 282.898 211.966 281.965C212.464 281.033 213.151 280.31 214.026 279.798C214.902 279.278 215.909 279.018 217.048 279.018C218.258 279.018 219.287 279.303 220.134 279.872C220.981 280.442 221.607 281.243 222.013 282.275C222.418 283.307 222.561 284.52 222.44 285.915H219.568V284.848C219.568 283.673 219.379 282.83 219.002 282.317C218.632 281.798 218.023 281.538 217.176 281.538C216.187 281.538 215.457 281.841 214.987 282.446C214.525 283.043 214.293 283.93 214.293 285.104C214.293 286.179 214.525 287.012 214.987 287.602C215.457 288.186 216.144 288.478 217.048 288.478C217.617 288.478 218.105 288.353 218.511 288.104C218.916 287.855 219.226 287.496 219.44 287.026L222.344 287.859C221.909 288.912 221.223 289.731 220.283 290.314C219.351 290.898 218.329 291.19 217.219 291.19ZM213.397 285.915V283.759H221.041V285.915H213.397ZM232.328 291.19C231.503 291.19 230.802 291.033 230.225 290.72C229.656 290.4 229.221 289.976 228.923 289.449C228.631 288.916 228.485 288.328 228.485 287.688C228.485 287.154 228.567 286.666 228.73 286.225C228.894 285.784 229.157 285.396 229.52 285.061C229.891 284.72 230.385 284.435 231.005 284.207C231.432 284.051 231.941 283.912 232.531 283.791C233.122 283.67 233.791 283.556 234.539 283.449C235.286 283.335 236.108 283.211 237.005 283.075L235.959 283.652C235.959 282.969 235.795 282.467 235.467 282.147C235.14 281.826 234.592 281.666 233.823 281.666C233.396 281.666 232.951 281.769 232.489 281.976C232.026 282.182 231.702 282.549 231.517 283.075L228.891 282.243C229.182 281.289 229.73 280.513 230.535 279.915C231.339 279.317 232.435 279.018 233.823 279.018C234.841 279.018 235.745 279.175 236.535 279.488C237.325 279.801 237.923 280.342 238.329 281.111C238.557 281.538 238.692 281.965 238.734 282.392C238.777 282.819 238.799 283.296 238.799 283.823V290.87H236.257V288.499L236.62 288.99C236.058 289.766 235.45 290.329 234.795 290.677C234.147 291.019 233.325 291.19 232.328 291.19ZM232.948 288.905C233.482 288.905 233.93 288.812 234.293 288.627C234.663 288.435 234.955 288.218 235.168 287.976C235.389 287.734 235.539 287.531 235.617 287.368C235.766 287.054 235.852 286.691 235.873 286.279C235.902 285.859 235.916 285.51 235.916 285.232L236.77 285.446C235.909 285.588 235.211 285.709 234.677 285.809C234.143 285.901 233.713 285.987 233.385 286.065C233.058 286.143 232.77 286.229 232.521 286.321C232.236 286.435 232.005 286.56 231.827 286.695C231.656 286.823 231.528 286.965 231.442 287.122C231.364 287.279 231.325 287.453 231.325 287.645C231.325 287.908 231.389 288.136 231.517 288.328C231.652 288.514 231.841 288.656 232.083 288.756C232.325 288.855 232.613 288.905 232.948 288.905Z" fill="white"/>
</svg>
