<svg width="691" height="496" viewBox="0 0 691 496" fill="none" xmlns="http://www.w3.org/2000/svg">
<rect x="665" y="173.241" width="65" height="289" transform="rotate(90 665 173.241)" fill="#082FFF"/>
<path d="M208.258 316.036V246.661C208.258 238.835 206.319 232.736 202.442 228.365C198.564 223.923 193.312 221.703 186.684 221.703C182.595 221.703 178.929 222.654 175.686 224.558C172.442 226.391 169.869 229.141 167.966 232.807C166.062 236.402 165.11 240.703 165.11 245.709L153.794 239.046C153.724 231.15 155.486 224.205 159.082 218.213C162.748 212.149 167.684 207.426 173.888 204.041C180.092 200.657 187.001 198.965 194.616 198.965C207.236 198.965 216.895 202.772 223.593 210.387C230.361 217.931 233.745 227.872 233.745 240.21V316.036H208.258ZM70.8823 316.036V201.821H93.4081V237.249H96.5808V316.036H70.8823ZM139.729 316.036V246.978C139.729 239.011 137.79 232.807 133.912 228.365C130.035 223.923 124.747 221.703 118.049 221.703C111.563 221.703 106.346 223.923 102.397 228.365C98.5196 232.807 96.5808 238.588 96.5808 245.709L85.1592 238.095C85.1592 230.692 86.9923 224.029 90.6585 218.107C94.3247 212.185 99.2599 207.531 105.464 204.147C111.739 200.693 118.754 198.965 126.51 198.965C135.04 198.965 142.161 200.798 147.872 204.464C153.653 208.06 157.954 212.995 160.774 219.27C163.665 225.474 165.11 232.49 165.11 240.315V316.036H139.729Z" fill="black"/>
<path d="M156.641 180.556C148.463 180.556 141.301 178.498 135.154 174.382C129.007 170.266 124.205 164.668 120.748 157.588C117.345 150.508 115.643 142.523 115.643 133.632C115.643 124.576 117.372 116.536 120.83 109.511C124.342 102.431 129.254 96.8606 135.566 92.7993C141.877 88.738 149.286 86.7074 157.793 86.7074C166.245 86.7074 173.352 88.7654 179.115 92.8816C184.878 96.9978 189.241 102.596 192.204 109.676C195.168 116.755 196.65 124.741 196.65 133.632C196.65 142.523 195.141 150.508 192.122 157.588C189.158 164.668 184.713 170.266 178.786 174.382C172.858 178.498 165.477 180.556 156.641 180.556ZM160.263 160.634C165.257 160.634 169.236 159.509 172.2 157.259C175.218 155.008 177.386 151.853 178.703 147.791C180.02 143.73 180.679 139.01 180.679 133.632C180.679 128.253 180.02 123.533 178.703 119.472C177.386 115.411 175.273 112.255 172.364 110.005C169.51 107.755 165.751 106.63 161.086 106.63C156.092 106.63 151.976 107.864 148.738 110.334C145.554 112.749 143.194 116.015 141.658 120.131C140.121 124.192 139.353 128.692 139.353 133.632C139.353 138.626 140.094 143.181 141.575 147.297C143.057 151.359 145.335 154.597 148.408 157.012C151.482 159.426 155.433 160.634 160.263 160.634ZM180.679 178.086V117.167H177.88V59.5406H200.437V178.086H180.679Z" fill="black"/>
<path d="M283.497 220.071C278.448 220.071 273.646 219.248 269.091 217.602C264.535 216.01 260.447 213.76 256.824 210.851C253.257 207.997 250.348 204.649 248.098 200.808L268.844 190.764C270.271 193.399 272.301 195.402 274.936 196.774C277.625 198.146 280.534 198.832 283.662 198.832C287.01 198.832 290.165 198.256 293.129 197.103C296.093 196.006 298.453 194.332 300.209 192.081C302.02 189.886 302.871 187.142 302.761 183.849V157.999H305.56V89.1771H325.153V184.178C325.153 186.374 325.043 188.432 324.824 190.353C324.659 192.328 324.33 194.277 323.836 196.198C322.409 201.631 319.747 206.104 315.85 209.616C312.009 213.129 307.289 215.736 301.691 217.437C296.093 219.193 290.028 220.071 283.497 220.071ZM281.521 180.556C273.344 180.556 266.182 178.498 260.035 174.382C253.888 170.266 249.086 164.668 245.628 157.588C242.226 150.508 240.524 142.523 240.524 133.632C240.524 124.576 242.253 116.536 245.711 109.511C249.223 102.431 254.135 96.8606 260.447 92.7993C266.758 88.738 274.167 86.7074 282.674 86.7074C291.126 86.7074 298.233 88.7654 303.996 92.8816C309.758 96.9978 314.122 102.596 317.085 109.676C320.049 116.755 321.531 124.741 321.531 133.632C321.531 142.523 320.021 150.508 317.003 157.588C314.039 164.668 309.594 170.266 303.666 174.382C297.739 178.498 290.358 180.556 281.521 180.556ZM285.144 160.634C290.138 160.634 294.117 159.509 297.081 157.259C300.099 155.008 302.267 151.853 303.584 147.791C304.901 143.73 305.56 139.01 305.56 133.632C305.56 128.253 304.901 123.533 303.584 119.472C302.267 115.411 300.154 112.255 297.245 110.005C294.391 107.755 290.632 106.63 285.967 106.63C280.973 106.63 276.856 107.864 273.618 110.334C270.435 112.749 268.075 116.015 266.539 120.131C265.002 124.192 264.234 128.692 264.234 133.632C264.234 138.626 264.974 143.181 266.456 147.297C267.938 151.359 270.216 154.597 273.289 157.012C276.363 159.426 280.314 160.634 285.144 160.634Z" fill="black"/>
<path d="M210.879 76.8285V57.0709H233.271V76.8285H210.879ZM210.879 178.086V89.1771H233.271V178.086H210.879Z" fill="black"/>
<path d="M357.211 157.834L357.211 177.592L334.819 177.592L334.819 157.834L357.211 157.834ZM357.211 56.5762L357.211 145.486L334.819 145.486L334.819 56.5762L357.211 56.5762Z" fill="black"/>
<path d="M431.062 183.482C424.915 184.635 418.878 185.129 412.951 184.964C407.078 184.854 401.81 183.839 397.145 181.918C392.535 179.943 389.022 176.787 386.607 172.451C384.412 168.39 383.26 164.274 383.15 160.103C383.04 155.877 382.985 151.102 382.985 145.778V69.876H405.377V144.461C405.377 147.919 405.405 151.047 405.459 153.846C405.569 156.59 406.145 158.785 407.188 160.432C409.164 163.56 412.32 165.261 416.655 165.536C420.991 165.81 425.793 165.591 431.062 164.877V183.482ZM367.838 111.861V94.5731L431.062 94.5731V111.861L367.838 111.861Z" fill="black"/>
<path d="M439.972 181L477.399 58.512H511.933L549.36 181H525.543L492.199 72.9724L496.622 72.9724L463.789 181H439.972ZM462.428 155.482V133.876H527.074V155.482H462.428Z" fill="black"/>
<path d="M559.3 181V58.512L582.437 58.512V159.394H635.175V181H559.3Z" fill="black"/>
<path d="M279.556 318.727C272.754 318.727 267.21 317.575 262.925 315.272C258.64 312.969 255.292 310.05 252.882 306.515C250.525 302.98 248.838 299.31 247.82 295.508C246.803 291.651 246.187 288.143 245.972 284.982C245.758 281.822 245.651 279.519 245.651 278.073V229.384H267.826V270.36C267.826 272.342 267.933 274.886 268.147 277.992C268.362 281.046 269.031 284.125 270.156 287.232C271.281 290.339 273.102 292.937 275.619 295.025C278.191 297.114 281.806 298.159 286.466 298.159C288.341 298.159 290.349 297.864 292.492 297.275C294.634 296.686 296.643 295.561 298.518 293.901C300.392 292.187 301.919 289.696 303.097 286.429C304.329 283.108 304.945 278.769 304.945 273.413L317.479 279.358C317.479 286.214 316.086 292.642 313.301 298.641C310.516 304.64 306.311 309.487 300.687 313.183C295.116 316.879 288.073 318.727 279.556 318.727ZM307.677 316.156V287.393H304.945V229.384H326.959V316.156H307.677Z" fill="black"/>
<path d="M384.504 319.209C370.403 319.209 358.946 316.036 350.133 309.691C341.32 303.345 335.962 294.426 334.058 282.934L360.075 278.915C361.414 284.556 364.375 288.998 368.958 292.241C373.541 295.484 379.322 297.106 386.302 297.106C392.436 297.106 397.16 295.907 400.474 293.51C403.858 291.042 405.55 287.693 405.55 283.463C405.55 280.854 404.916 278.774 403.647 277.223C402.448 275.602 399.769 274.05 395.609 272.57C391.449 271.089 385.069 269.221 376.467 266.965C366.878 264.427 359.264 261.712 353.623 258.821C347.983 255.86 343.929 252.37 341.461 248.351C338.994 244.333 337.76 239.468 337.76 233.757C337.76 226.636 339.628 220.432 343.365 215.144C347.102 209.856 352.319 205.802 359.017 202.982C365.715 200.091 373.611 198.646 382.707 198.646C391.59 198.646 399.452 200.02 406.29 202.77C413.2 205.52 418.77 209.433 423 214.509C427.23 219.585 429.839 225.543 430.826 232.382L404.81 237.035C404.175 232.171 401.954 228.328 398.147 225.508C394.41 222.688 389.405 221.101 383.13 220.749C377.137 220.396 372.307 221.313 368.641 223.498C364.975 225.614 363.141 228.61 363.141 232.488C363.141 234.674 363.882 236.542 365.362 238.093C366.843 239.644 369.804 241.195 374.246 242.746C378.758 244.297 385.456 246.201 394.34 248.457C403.435 250.784 410.697 253.463 416.126 256.495C421.625 259.456 425.574 263.016 427.971 267.176C430.438 271.336 431.672 276.377 431.672 282.3C431.672 293.792 427.477 302.816 419.087 309.373C410.768 315.93 399.24 319.209 384.504 319.209Z" fill="black"/>
<path d="M443.837 217.333V198.05H465.69V217.333H443.837ZM443.837 316.156V229.384H465.69V316.156H443.837Z" fill="black"/>
<path d="M528.325 319.486C516.955 319.486 507.254 316.967 499.221 311.929C491.187 306.823 485.026 299.879 480.737 291.096C476.516 282.314 474.371 272.374 474.303 261.277C474.371 249.976 476.584 239.968 480.941 231.254C485.366 222.472 491.63 215.596 499.731 210.626C507.833 205.588 517.466 203.069 528.631 203.069C541.158 203.069 551.744 206.235 560.39 212.566C569.105 218.83 574.789 227.408 577.444 238.3L552.936 244.938C551.029 239.015 547.864 234.42 543.439 231.152C539.013 227.816 533.975 226.148 528.325 226.148C521.925 226.148 516.649 227.68 512.496 230.744C508.343 233.739 505.28 237.892 503.305 243.202C501.331 248.512 500.344 254.537 500.344 261.277C500.344 271.762 502.693 280.238 507.39 286.705C512.088 293.173 519.066 296.407 528.325 296.407C534.86 296.407 540 294.909 543.745 291.913C547.557 288.918 550.417 284.595 552.323 278.944L577.444 284.561C574.04 295.794 568.083 304.44 559.573 310.499C551.063 316.49 540.647 319.486 528.325 319.486Z" fill="black"/>
<path d="M103.844 436.237V390.228C103.844 385.084 102.618 381.094 100.166 378.258C97.7623 375.373 94.421 373.931 90.1422 373.931C87.4019 373.931 85.0221 374.58 83.003 375.878C80.9838 377.128 79.3973 378.907 78.2435 381.214C77.1377 383.474 76.5848 386.094 76.5848 389.075L68.3639 383.594C68.3639 378.258 69.6138 373.546 72.1138 369.46C74.6618 365.373 78.0512 362.2 82.2818 359.941C86.5606 357.633 91.296 356.479 96.4882 356.479C105.382 356.479 112.089 359.123 116.608 364.412C121.175 369.652 123.459 376.527 123.459 385.036V436.237H103.844ZM9.9517 436.237V358.354H27.259V384.171H29.7109V436.237H9.9517ZM56.9699 436.237V390.228C56.9699 385.084 55.744 381.094 53.2921 378.258C50.8883 375.373 47.547 373.931 43.2683 373.931C39.1818 373.931 35.8886 375.349 33.3887 378.185C30.9368 380.974 29.7109 384.604 29.7109 389.075L21.4899 383.306C21.4899 378.21 22.7639 373.642 25.3119 369.604C27.86 365.566 31.2733 362.369 35.5521 360.013C39.8789 357.657 44.7105 356.479 50.047 356.479C56.1526 356.479 61.1525 357.777 65.0466 360.373C68.9888 362.969 71.8974 366.431 73.7724 370.758C75.6474 375.085 76.5848 379.844 76.5848 385.036V436.237H56.9699Z" fill="black"/>
<path d="M158.678 437.662C153.049 437.662 148.268 436.594 144.337 434.459C140.455 432.275 137.494 429.387 135.456 425.796C133.466 422.156 132.471 418.152 132.471 413.785C132.471 410.145 133.03 406.82 134.146 403.812C135.262 400.803 137.058 398.158 139.533 395.877C142.056 393.547 145.429 391.606 149.651 390.053C152.563 388.985 156.033 388.039 160.061 387.214C164.089 386.389 168.651 385.612 173.747 384.884C178.843 384.108 184.448 383.259 190.563 382.337L183.429 386.268C183.429 381.609 182.313 378.187 180.08 376.003C177.848 373.819 174.111 372.727 168.87 372.727C165.958 372.727 162.925 373.431 159.77 374.839C156.616 376.246 154.407 378.745 153.146 382.337L135.238 376.658C137.227 370.155 140.964 364.865 146.448 360.789C151.932 356.712 159.406 354.674 168.87 354.674C175.81 354.674 181.973 355.742 187.36 357.877C192.747 360.012 196.823 363.701 199.59 368.942C201.143 371.854 202.065 374.766 202.356 377.678C202.647 380.589 202.793 383.841 202.793 387.432V435.478H185.467V419.317L187.942 422.666C184.108 427.956 179.959 431.79 175.494 434.168C171.078 436.497 165.472 437.662 158.678 437.662ZM162.9 422.083C166.54 422.083 169.598 421.453 172.073 420.191C174.596 418.88 176.586 417.4 178.042 415.75C179.546 414.1 180.566 412.717 181.099 411.601C182.119 409.465 182.701 406.99 182.847 404.176C183.041 401.312 183.138 398.934 183.138 397.041L188.961 398.497C183.089 399.468 178.333 400.293 174.693 400.973C171.054 401.603 168.117 402.186 165.885 402.72C163.653 403.253 161.687 403.836 159.988 404.467C158.047 405.243 156.47 406.093 155.257 407.015C154.092 407.888 153.218 408.859 152.636 409.926C152.102 410.994 151.835 412.183 151.835 413.493C151.835 415.289 152.272 416.842 153.146 418.152C154.068 419.414 155.354 420.385 157.004 421.064C158.654 421.744 160.619 422.083 162.9 422.083Z" fill="black"/>
<path d="M212.476 435.478V356.858H229.947V376.076L228.054 373.601C229.074 370.883 230.432 368.408 232.131 366.176C233.83 363.943 235.916 362.099 238.391 360.643C240.284 359.479 242.347 358.581 244.579 357.95C246.812 357.27 249.117 356.858 251.495 356.712C253.873 356.518 256.251 356.567 258.629 356.858V375.348C256.445 374.669 253.897 374.45 250.985 374.693C248.122 374.887 245.526 375.542 243.196 376.658C240.867 377.726 238.901 379.158 237.3 380.953C235.698 382.701 234.485 384.787 233.66 387.214C232.835 389.592 232.422 392.285 232.422 395.294V435.478H212.476Z" fill="black"/>
<path d="M269.411 447.895V333.478H291.023V386.237L334.565 333.478H360.944L313.112 389.892L363.963 447.895H336.631L291.023 395.772V447.895H269.411Z" fill="black"/>
<path d="M488.851 433.044C483.112 434.12 477.475 434.582 471.941 434.428C466.458 434.325 461.539 433.377 457.184 431.584C452.88 429.739 449.6 426.793 447.346 422.745C445.296 418.953 444.22 415.11 444.118 411.216C444.015 407.27 443.964 402.812 443.964 397.842V326.976H464.87V396.612C464.87 399.84 464.896 402.761 464.947 405.374C465.049 407.937 465.587 409.986 466.561 411.523C468.406 414.444 471.352 416.033 475.4 416.289C479.448 416.545 483.932 416.34 488.851 415.674V433.044ZM429.821 366.175V350.035H488.851V366.175H429.821Z" fill="black"/>
<path d="M388.033 435.35C379.527 435.35 372.021 433.531 365.513 429.893C359.057 426.204 353.984 421.157 350.294 414.752C346.656 408.295 344.837 400.917 344.837 392.616C344.837 383.546 346.631 375.655 350.218 368.942C353.804 362.23 358.749 357.029 365.052 353.34C371.354 349.599 378.605 347.729 386.803 347.729C395.514 347.729 402.919 349.778 409.016 353.878C415.114 357.977 419.623 363.741 422.544 371.171C425.465 378.601 426.489 387.338 425.618 397.381H404.943V389.695C404.943 381.24 403.585 375.168 400.869 371.479C398.204 367.738 393.823 365.868 387.726 365.868C380.603 365.868 375.351 368.046 371.969 372.401C368.639 376.705 366.973 383.085 366.973 391.54C366.973 399.277 368.639 405.272 371.969 409.525C375.351 413.727 380.296 415.828 386.803 415.828C390.903 415.828 394.413 414.931 397.333 413.137C400.254 411.344 402.483 408.756 404.02 405.374L424.927 411.37C421.801 418.953 416.856 424.846 410.092 429.048C403.38 433.249 396.027 435.35 388.033 435.35ZM360.517 397.381V381.855H415.549V397.381H360.517Z" fill="black"/>
<path d="M498.707 351.37V332.538H520.051V351.37H498.707ZM498.707 447.887V363.14H520.051V447.887H498.707Z" fill="black"/>
<path d="M582.336 408.565V372.659C582.336 370.922 582.242 368.716 582.055 366.041C581.867 363.319 581.28 360.596 580.295 357.874C579.309 355.152 577.69 352.875 575.437 351.045C573.231 349.214 570.086 348.299 566.002 348.299C564.36 348.299 562.6 348.557 560.722 349.074C558.845 349.59 557.085 350.599 555.442 352.101C553.799 353.556 552.438 355.715 551.358 358.578C550.326 361.441 549.81 365.243 549.81 369.984L538.826 364.774C538.826 358.766 540.047 353.134 542.487 347.877C544.928 342.62 548.589 338.372 553.471 335.133C558.399 331.895 564.594 330.276 572.057 330.276C578.018 330.276 582.876 331.285 586.631 333.303C590.386 335.321 593.296 337.879 595.361 340.977C597.473 344.075 598.975 347.313 599.867 350.693C600.759 354.025 601.299 357.076 601.486 359.845C601.674 362.615 601.768 364.633 601.768 365.9V408.565H582.336ZM530.378 408.565V332.529H547.416V357.733H549.81V408.565H530.378Z" fill="black"/>
<path d="M645.118 444.471C640.8 444.471 636.693 443.767 632.797 442.359C628.901 440.998 625.405 439.074 622.307 436.586C619.256 434.145 616.768 431.282 614.844 427.997L632.586 419.407C633.806 421.66 635.543 423.374 637.796 424.547C640.096 425.72 642.583 426.307 645.259 426.307C648.122 426.307 650.821 425.814 653.355 424.829C655.89 423.89 657.908 422.458 659.41 420.534C660.959 418.656 661.686 416.31 661.592 413.493V391.387H663.986V332.529H680.742V413.775C680.742 415.653 680.649 417.413 680.461 419.055C680.32 420.745 680.038 422.411 679.616 424.054C678.396 428.701 676.119 432.526 672.787 435.53C669.501 438.534 665.465 440.763 660.677 442.218C655.89 443.72 650.703 444.471 645.118 444.471ZM643.428 410.677C636.435 410.677 630.309 408.917 625.053 405.397C619.796 401.877 615.689 397.089 612.732 391.035C609.822 384.98 608.367 378.151 608.367 370.547C608.367 362.802 609.845 355.926 612.802 349.918C615.806 343.864 620.007 339.1 625.405 335.626C630.802 332.153 637.139 330.416 644.414 330.416C651.642 330.416 657.72 332.176 662.648 335.697C667.577 339.217 671.308 344.004 673.843 350.059C676.377 356.114 677.645 362.943 677.645 370.547C677.645 378.151 676.354 384.98 673.772 391.035C671.238 397.089 667.436 401.877 662.367 405.397C657.298 408.917 650.985 410.677 643.428 410.677ZM646.526 393.639C650.797 393.639 654.2 392.677 656.734 390.753C659.316 388.829 661.17 386.13 662.296 382.656C663.423 379.183 663.986 375.147 663.986 370.547C663.986 365.947 663.423 361.911 662.296 358.437C661.17 354.964 659.363 352.265 656.875 350.341C654.435 348.416 651.219 347.454 647.23 347.454C642.959 347.454 639.438 348.51 636.669 350.622C633.947 352.688 631.929 355.48 630.614 359.001C629.3 362.474 628.643 366.323 628.643 370.547C628.643 374.818 629.277 378.714 630.544 382.234C631.811 385.707 633.759 388.476 636.388 390.542C639.016 392.607 642.395 393.639 646.526 393.639Z" fill="black"/>
</svg>
