<svg width="38" height="26" viewBox="0 0 38 26" fill="none" xmlns="http://www.w3.org/2000/svg">
<path d="M10.9488 0.242795C7.83275 0.242795 5.11733 2.26946 3.23633 5.17171C1.11467 8.44129 0 12.6767 0 16.7395C0 17.8574 0.110833 18.9071 0.3325 19.8635C0.441332 20.3263 0.581517 20.7813 0.752083 21.2251C0.915427 21.6418 1.11186 22.0447 1.3395 22.43C2.4415 24.2651 4.218 25.4811 7.02842 25.4811C9.39867 25.4811 11.1973 24.4187 13.3063 21.6115C14.5097 20.0091 15.1177 19.037 17.5228 14.7715L18.7197 12.6514L19.0142 12.1368C19.1108 12.2951 19.2058 12.4471 19.304 12.6118L22.7113 18.3039C23.8577 20.2197 25.3476 22.3509 26.6222 23.551C28.2783 25.1138 29.7762 25.4827 31.4672 25.4827C33.1693 25.4827 34.4375 24.9206 35.3543 24.148C35.8661 23.711 36.2998 23.19 36.6367 22.6074C37.4949 21.1206 38 19.2396 38 16.6778C38 12.3711 36.9218 8.19588 34.7003 4.88196C32.6705 1.85463 30.0184 0.242795 27.2333 0.242795C25.5756 0.242795 23.9273 0.982211 22.3994 2.31379C21.3671 3.21629 20.4092 4.35629 19.5177 5.55963C18.4252 4.17421 17.404 3.11021 16.4176 2.30429C14.5461 0.774794 12.7522 0.241211 10.9488 0.241211V0.242795ZM27.0354 3.49338C28.8515 3.49338 30.4998 4.69354 31.7728 6.65846C33.5651 9.42613 34.3805 13.3005 34.3805 16.7918C34.3805 19.2428 33.7978 21.3835 31.4688 21.3835C30.5504 21.3835 29.8427 21.0193 28.8341 19.7938C28.0488 18.8422 26.7077 16.8203 24.3501 12.8936L23.3732 11.266C22.7382 10.2038 22.0756 9.15849 21.3861 8.13096C21.4969 7.95838 21.6093 7.77629 21.7202 7.61321C23.4935 4.97379 25.0721 3.49338 27.0354 3.49338ZM10.8838 4.36896C12.8868 4.36896 14.1423 5.62138 15.1193 6.65846C15.6053 7.17621 16.2862 8.03754 17.0731 9.15854L15.4581 11.638C14.2595 13.4795 12.4783 16.415 10.9662 18.5065C9.08042 21.1175 8.10033 21.3835 7.03 21.3835C6.20033 21.3835 5.3865 21.0082 4.84025 20.1263C4.42383 19.4518 4.10558 18.3371 4.10558 16.8868C4.10558 13.3702 5.10308 9.70638 6.73392 7.24746C7.45275 6.15971 8.26025 5.30629 9.16117 4.82021C9.68829 4.52729 10.2808 4.37208 10.8838 4.36896Z" fill="black"/>
</svg>
