<svg width="516" height="162" viewBox="0 0 516 162" fill="none" xmlns="http://www.w3.org/2000/svg">
<rect x="79" y="69" width="267" height="62" fill="#082FFF"/>
<path d="M33.291 127.777C25.2348 127.777 18.7188 125.961 13.7429 122.327C8.80652 118.655 5.8052 113.481 4.73894 106.807L21.2067 104.319C21.8781 107.321 23.359 109.67 25.6495 111.369C27.9795 113.067 30.9216 113.916 34.4758 113.916C37.3981 113.916 39.6491 113.363 41.2288 112.257C42.8084 111.112 43.5982 109.532 43.5982 107.518C43.5982 106.254 43.2823 105.247 42.6504 104.497C42.0186 103.707 40.5969 102.937 38.3854 102.187C36.2134 101.437 32.8171 100.449 28.1967 99.225C22.9838 97.8823 18.8175 96.3816 15.6977 94.723C12.5779 93.0644 10.3269 91.0898 8.94474 88.7993C7.56255 86.4694 6.87146 83.6655 6.87146 80.3877C6.87146 76.2807 7.91797 72.7265 10.011 69.7251C12.104 66.6843 15.0461 64.3543 18.8373 62.7352C22.6679 61.0766 27.1699 60.2473 32.3432 60.2473C37.3586 60.2473 41.8014 61.0173 45.6715 62.5575C49.5416 64.0976 52.6614 66.2894 55.0309 69.1328C57.4399 71.9761 58.9208 75.3329 59.4737 79.203L43.0059 82.1648C42.7294 79.7954 41.7026 77.9195 39.9255 76.5373C38.1484 75.1552 35.7395 74.3456 32.6987 74.1086C29.7368 73.9112 27.3476 74.3061 25.531 75.2934C23.7539 76.2807 22.8654 77.7023 22.8654 79.5584C22.8654 80.6642 23.2405 81.5922 23.9909 82.3425C24.7807 83.0929 26.3801 83.863 28.789 84.6528C31.2375 85.4426 34.9497 86.4694 39.9255 87.7331C44.783 88.9968 48.6728 90.4777 51.5952 92.1758C54.557 93.8345 56.7093 95.8485 58.052 98.218C59.3947 100.548 60.066 103.372 60.066 106.689C60.066 113.244 57.6966 118.398 52.9576 122.15C48.2187 125.901 41.6632 127.777 33.291 127.777Z" fill="white"/>
<path d="M97.8395 127.777C91.284 127.777 85.4986 126.375 80.4832 123.571C75.5073 120.728 71.5977 116.838 68.7543 111.902C65.9504 106.926 64.5485 101.239 64.5485 94.8415C64.5485 87.8516 65.9307 81.7699 68.6951 76.5966C71.4595 71.4232 75.2704 67.4149 80.1278 64.5715C84.9852 61.6887 90.5732 60.2473 96.8918 60.2473C103.605 60.2473 109.312 61.8269 114.011 64.9862C118.711 68.1455 122.186 72.5882 124.437 78.3144C126.688 84.0407 127.478 90.7739 126.806 98.5142H110.872V92.5905C110.872 86.0745 109.825 81.3948 107.732 78.5514C105.679 75.6685 102.302 74.2271 97.6026 74.2271C92.1133 74.2271 88.0655 75.9055 85.4591 79.2622C82.8921 82.5795 81.6087 87.4961 81.6087 94.0122C81.6087 99.9753 82.8921 104.596 85.4591 107.874C88.0655 111.112 91.8764 112.731 96.8918 112.731C100.051 112.731 102.756 112.04 105.007 110.658C107.258 109.276 108.976 107.281 110.161 104.675L126.273 109.295C123.864 115.14 120.053 119.681 114.84 122.92C109.667 126.158 104 127.777 97.8395 127.777ZM76.6328 98.5142V86.5484H119.046V98.5142H76.6328Z" fill="white"/>
<path d="M134.947 126V62.0244H149.164V77.6628L147.624 75.6488C148.453 73.4373 149.559 71.4232 150.941 69.6067C152.324 67.7901 154.022 66.2894 156.036 65.1047C157.576 64.1569 159.254 63.4263 161.071 62.9129C162.887 62.36 164.763 62.0244 166.698 61.9059C168.633 61.7479 170.568 61.7874 172.504 62.0244V77.0705C170.726 76.5176 168.653 76.3399 166.284 76.5373C163.954 76.6953 161.841 77.2284 159.945 78.1367C158.05 79.0055 156.45 80.1705 155.147 81.6317C153.844 83.0534 152.857 84.7515 152.185 86.7261C151.514 88.6611 151.178 90.8529 151.178 93.3013V126H134.947Z" fill="white"/>
<path d="M301.487 53.1388V38.922H317.599V53.1388H301.487ZM301.487 126V62.0244H317.599V126H301.487Z" fill="white"/>
<path d="M357.817 127.777C351.182 127.777 345.496 126.296 340.757 123.334C336.018 120.373 332.385 116.344 329.857 111.25C327.33 106.156 326.066 100.41 326.066 94.0122C326.066 87.5356 327.369 81.7502 329.976 76.6558C332.622 71.5615 336.334 67.5531 341.112 64.6308C345.891 61.7084 351.538 60.2473 358.054 60.2473C365.597 60.2473 371.915 62.1626 377.01 65.9932C382.144 69.7844 385.421 74.9774 386.843 81.5725L370.731 85.8375C369.783 82.5203 368.124 79.9336 365.755 78.0775C363.425 76.2214 360.779 75.2934 357.817 75.2934C354.421 75.2934 351.637 76.1227 349.465 77.7813C347.293 79.4005 345.693 81.6317 344.666 84.4751C343.64 87.2789 343.126 90.458 343.126 94.0122C343.126 99.5804 344.35 104.102 346.799 107.577C349.287 111.013 352.96 112.731 357.817 112.731C361.45 112.731 364.215 111.902 366.11 110.243C368.006 108.584 369.427 106.215 370.375 103.135L386.843 106.57C385.026 113.363 381.591 118.595 376.536 122.268C371.481 125.941 365.241 127.777 357.817 127.777Z" fill="white"/>
<path d="M422.684 127.777C416.129 127.777 410.343 126.375 405.328 123.571C400.352 120.728 396.442 116.838 393.599 111.902C390.795 106.926 389.393 101.239 389.393 94.8415C389.393 87.8516 390.775 81.7699 393.54 76.5966C396.304 71.4232 400.115 67.4149 404.972 64.5715C409.83 61.6887 415.418 60.2473 421.736 60.2473C428.45 60.2473 434.156 61.8269 438.856 64.9862C443.555 68.1455 447.031 72.5882 449.282 78.3144C451.533 84.0407 452.322 90.7739 451.651 98.5142H435.716V92.5905C435.716 86.0745 434.67 81.3948 432.577 78.5514C430.523 75.6685 427.147 74.2271 422.447 74.2271C416.958 74.2271 412.91 75.9055 410.304 79.2622C407.737 82.5795 406.453 87.4961 406.453 94.0122C406.453 99.9753 407.737 104.596 410.304 107.874C412.91 111.112 416.721 112.731 421.736 112.731C424.896 112.731 427.601 112.04 429.852 110.658C432.103 109.276 433.821 107.281 435.006 104.675L451.118 109.295C448.709 115.14 444.898 119.681 439.685 122.92C434.512 126.158 428.845 127.777 422.684 127.777ZM401.478 98.5142V86.5484H443.891V98.5142H401.478Z" fill="white"/>
<path d="M483.618 127.777C475.562 127.777 469.046 125.961 464.07 122.327C459.134 118.655 456.132 113.481 455.066 106.807L471.534 104.319C472.205 107.321 473.686 109.67 475.977 111.369C478.307 113.067 481.249 113.916 484.803 113.916C487.725 113.916 489.976 113.363 491.556 112.257C493.136 111.112 493.925 109.532 493.925 107.518C493.925 106.254 493.609 105.247 492.978 104.497C492.346 103.707 490.924 102.937 488.713 102.187C486.541 101.437 483.144 100.449 478.524 99.225C473.311 97.8823 469.145 96.3816 466.025 94.723C462.905 93.0644 460.654 91.0898 459.272 88.7993C457.89 86.4694 457.199 83.6655 457.199 80.3877C457.199 76.2807 458.245 72.7265 460.338 69.7251C462.431 66.6843 465.373 64.3543 469.164 62.7352C472.995 61.0766 477.497 60.2473 482.67 60.2473C487.686 60.2473 492.129 61.0173 495.999 62.5575C499.869 64.0976 502.989 66.2894 505.358 69.1328C507.767 71.9761 509.248 75.3329 509.801 79.203L493.333 82.1648C493.057 79.7954 492.03 77.9195 490.253 76.5373C488.476 75.1552 486.067 74.3456 483.026 74.1086C480.064 73.9112 477.675 74.3061 475.858 75.2934C474.081 76.2807 473.193 77.7023 473.193 79.5584C473.193 80.6642 473.568 81.5922 474.318 82.3425C475.108 83.0929 476.707 83.863 479.116 84.6528C481.565 85.4426 485.277 86.4694 490.253 87.7331C495.11 88.9968 499 90.4777 501.922 92.1758C504.884 93.8345 507.036 95.8485 508.379 98.218C509.722 100.548 510.393 103.372 510.393 106.689C510.393 113.244 508.024 118.398 503.285 122.15C498.546 125.901 491.99 127.777 483.618 127.777Z" fill="white"/>
<path d="M184.14 73.5091L291.776 40.6203L291.776 61.5495L203.275 88.4586L291.776 115.816L291.776 136.745L184.14 103.857L184.14 73.5091Z" fill="white"/>
</svg>
