<svg width="25" height="29" viewBox="0 0 25 29" fill="none" xmlns="http://www.w3.org/2000/svg">
<g clip-path="url(#clip0_155_43)">
<path d="M20.9014 5.98728C19.3837 4.98022 18.288 3.3696 17.9465 1.4919C17.8726 1.08601 17.8322 0.668636 17.8322 0.241211H12.9879L12.9799 19.9927C12.8985 22.2045 11.1093 23.9798 8.91561 23.9798C8.23392 23.9798 7.59174 23.8065 7.02673 23.5036C5.73062 22.8095 4.84381 21.4272 4.84381 19.8367C4.84381 17.5522 6.67059 15.6936 8.91561 15.6936C9.33478 15.6936 9.73655 15.764 10.1172 15.8851V10.8536C9.72338 10.799 9.32349 10.7651 8.91561 10.7651C3.99981 10.7655 0 14.8349 0 19.8367C0 22.9057 1.50734 25.6215 3.80646 27.2638C5.25452 28.2981 7.01638 28.9079 8.91608 28.9079C13.8323 28.9079 17.8322 24.8385 17.8322 19.8367V9.82118C19.7319 11.2088 22.0597 12.0263 24.5714 12.0263V7.09772C23.2184 7.09772 21.958 6.68848 20.9014 5.98728Z" fill="black"/>
</g>
<defs>
<clipPath id="clip0_155_43">
<rect width="24.5714" height="28.6667" fill="white" transform="translate(0 0.241211)"/>
</clipPath>
</defs>
</svg>
