<svg width="37" height="26" viewBox="0 0 37 26" fill="none" xmlns="http://www.w3.org/2000/svg">
<path d="M36.2051 4.2311C35.7799 2.66059 34.5268 1.42371 32.9359 1.00395C30.0522 0.241211 18.4889 0.241211 18.4889 0.241211C18.4889 0.241211 6.92568 0.241211 4.04192 1.00395C2.45097 1.42377 1.19796 2.66059 0.772687 4.2311C0 7.07773 0 13.017 0 13.017C0 13.017 0 18.9562 0.772687 21.8029C1.19796 23.3734 2.45097 24.5587 4.04192 24.9785C6.92568 25.7412 18.4889 25.7412 18.4889 25.7412C18.4889 25.7412 30.0521 25.7412 32.9359 24.9785C34.5268 24.5587 35.7799 23.3734 36.2051 21.8029C36.9778 18.9562 36.9778 13.017 36.9778 13.017C36.9778 13.017 36.9778 7.07773 36.2051 4.2311ZM14.7071 18.4094V7.62459L24.3717 13.0171L14.7071 18.4094Z" fill="black"/>
</svg>
